<?xml version="1.0" encoding="utf-8"?>
<!-- Generator: Adobe Illustrator 19.2.1, SVG Export Plug-In . SVG Version: 6.00 Build 0)  -->
<svg version="1.1" xmlns="http://www.w3.org/2000/svg" xmlns:xlink="http://www.w3.org/1999/xlink" x="0px" y="0px"
	 viewBox="71 205 110 105" xml:space="preserve">
<style type="text/css">
	.st0{display:none;}
	.st1{display:inline;fill:#4D4D4D;}
	.st2{display:inline;fill:#1A1A1A;}
	.st3{display:inline;fill:#808080;}
	.st4{display:inline;}
	.st5{fill:#808080;}
	.st6{display:inline;fill:#F0F0F0;}
	.st7{display:inline;fill:#B3B3B3;}
	.st8{display:inline;fill:#FFFFFF;}
	.st9{fill:#F0F0F0;}
	.st10{fill:#B3B3B3;}
</style>
<!--
<g id="Trademarks_-_vertical_logo" class="st0">
	<path class="st1" d="M442.6,175.1l-29.2-22.2c-1.4-1.1-4,0.1-4,1.8l1,67.5c0.1,5.7,3.1,10.9,8.3,13.2l45.4,20.5
		c4.6,2,9-1.9,8.1-6.8l-5.7-33.5C463.7,199.5,455.6,185.2,442.6,175.1z M432.1,219.4l-2.6-34.6c-0.1-1.1,0.7-1.3,1.5-0.6l4.7,3.2
		c11.6,8.4,15,17.6,17.3,32.9l1.7,12.3c0.2,1-1,0.9-1.9,0.4l-18.4-9.8C433.1,222.4,432.2,220.8,432.1,219.4z"/>
	<path class="st2" d="M394.1,278.3l-43.9-11.2c-2.2-0.7-1.3-2.2,0.5-2.9l2.8-1.1c3.8-1.4,8-1.8,11.9-0.7l29.3,8.3
		c2.2,0.6,6.4,1.8,8.2,1.3l3.3-0.9c0.7-0.2,0.3-1-0.9-1.4l-27.8-8.3c-4.8-1.4-8.7-7.1,1.9-11.4l13.7-5.6c6.2-2.4,16.6-2.4,24.2,0.7
		l39.4,16c2.4,1,2.1,2.5,0.5,2.9l-9.3,2.5c-3.6,0.9-7.4,1.1-10.9-0.2L408,256.2c-2.7-0.9-6-2.1-8.2-1.3l-2.9,1
		c-0.8,0.3-1,1.3-0.1,1.6l21.8,7.2c12,4,10.3,10.2,4.7,11.6l-9.1,2.3C406.4,280.6,401.1,280,394.1,278.3z"/>
	<path class="st3" d="M345.3,202.9L345.3,202.9c-0.3,1.6,1.3,3.3,2.6,2.3l30.8-21.1c1.1-0.7,1.6-0.3,1.5,0.9l-0.5,7.3
		c-0.1,2-1.4,3-3.1,4.1l-24.9,16c-1.5,1-2.8,2.7-3.2,4.5l-1.5,9.6c-0.1,1,1.1,1.7,2,1.2l27.6-15.9c0.6-0.3,1.5,0.3,1.5,1l-0.5,7.2
		c-0.1,1.4-1,2.5-2.2,3.2l-35,18.6c-1.9,1-2.1,2.1-2.4,3.8l-0.6,3c-0.9,5.2,3.5,9.6,8.1,7.5l45.5-20.5c5.2-2.4,8.3-8.1,8.4-13.8
		l1-66.5c0-1.8-2.7-3.4-4.1-2.3l-39.6,30C350.3,187.9,346.7,195.1,345.3,202.9z"/>
	<polygon class="st1" points="404.6,227.9 404.6,227.9 404.6,227.9 	"/>
	<polygon class="st2" points="388.7,313.7 380.3,313.7 369.8,333.2 359.3,313.7 350.9,313.7 365.6,342.5 365.6,362.1 374,362.1 
		374,342.6 374,342.6 374,342.5 	"/>
	<path class="st2" d="M278,355.3L278,355.3h-8.1v-34.4h8.1c3.4,0,8.4,1.1,8.6,9.3V346C286.4,354.2,281.5,355.3,278,355.3 M278,313.7
		h-16.6v3.6v3.6v34.4v6.9h8.5h8.1c7.4,0,16.3-3.3,17-15.5h0v-16.4C294.8,317,285.1,313.7,278,313.7"/>
	<polygon class="st2" points="427.9,313.7 427.9,321 439.3,321 439.3,362.1 447.7,362.1 447.7,321 459.1,321 459.1,313.7 	"/>
	<polygon class="st2" points="539.2,313.7 525.2,343 511.2,313.7 503.6,313.7 503.6,362.1 511.2,362.1 511.2,329.7 522.7,353.8 
		527.6,353.8 539.2,329.6 539.2,362.1 546.7,362.1 546.7,313.7 	"/>
	<path class="st2" d="M475.3,340.4h14.8v-6.4h-14.8v-11.9c0-0.7,0.6-1.3,1.3-1.3h17.9v-7.2h-22.1c-3,0-5.4,2.4-5.4,5.4v37.5
		c0,3,2.5,5.5,5.5,5.5h22.8v-7.2h-18.7c-0.7,0-1.3-0.6-1.3-1.3V340.4z"/>
	<path class="st2" d="M586,348c0-9.1-7.1-13-15.8-14.2v0c-4.7-0.7-8.2-2.8-8.2-6.3c0-3.4,2.8-6.2,8.1-6.2v0h13.1v-7.6h-13.1v0
		c-9.8,0-15.7,5.3-15.7,13.8c0,7.6,7.1,12.5,15.8,13.8v0c4.5,0.8,8.2,3,8.2,6.6c0,3.6-2.8,6.6-8.2,6.6h-14.8v7.5h14.8v0
		C580.2,362.1,586,356.7,586,348"/>
	<path class="st2" d="M238.8,340.4h-11.5v-6.4h11.4c3.3,0,6.1-2.7,6.1-6.1v-2.1c0-2.7-2.2-5-5-5h-15.5v-7.2h17.1
		c6.5,0,11.8,5.3,11.8,11.8v3c0,3.3-1.6,7.8-6,8.6l0,0l0,0c4.4,0.9,6,5.3,6,8.6v4.6c0,6.5-5.3,11.8-11.8,11.8h-17.8v-7.2h16.3
		c2.7,0,5-2.2,5-5v-3.6C244.7,343.1,242,340.4,238.8,340.4z"/>
	<path class="st2" d="M422.9,348c0-9.1-7.1-13-15.8-14.2v0c-4.7-0.7-8.2-2.8-8.2-6.3c0-3.4,2.8-6.2,8.1-6.2v0h13.1v-7.6H407v0
		c-9.8,0-15.7,5.3-15.7,13.8c0,7.6,7.1,12.5,15.8,13.8v0c4.5,0.8,8.2,3,8.2,6.6c0,3.6-2.8,6.6-8.2,6.6h-14.8v7.5h14.8v0
		C417.1,362.1,422.9,356.7,422.9,348"/>
	<path class="st2" d="M347.8,348c0-9.1-7.1-13-15.8-14.2v0c-4.7-0.7-8.2-2.8-8.2-6.3c0-3.4,2.8-6.2,8.1-6.2v0H345v-7.6H332v0
		c-9.8,0-15.7,5.3-15.7,13.8c0,7.6,7.1,12.5,15.8,13.8v0c4.5,0.8,8.2,3,8.2,6.6c0,3.6-2.8,6.6-8.2,6.6h-14.8v7.5h14.8v0
		C342.1,362.1,347.8,356.7,347.8,348"/>
</g>
<g id="No_trademarks_-_vertical_logo" class="st0">
	<g class="st4">
		<path class="st5" d="M465.9,272.8v1.2h-1.4v5.3h-1.4V274h-1.4v-1.2H465.9z M472.4,272.8v6.5h-1.3v-3.8h0l-1.3,2.9h-0.6l-1.3-2.9h0
			v3.8h-1.3v-6.5h1.3l1.6,3.7h0l1.6-3.7H472.4z"/>
	</g>
	<path class="st1" d="M442.6,175.1l-29.2-22.2c-1.4-1.1-4,0.1-4,1.8l1,67.5c0.1,5.7,3.1,10.9,8.3,13.2l45.4,20.5
		c4.6,2,9-1.9,8.1-6.8l-5.7-33.5C463.7,199.5,455.6,185.2,442.6,175.1z M432.1,219.4l-2.6-34.6c-0.1-1.1,0.7-1.3,1.5-0.6l4.7,3.2
		c11.6,8.4,15,17.6,17.3,32.9l1.7,12.3c0.2,1-1,0.9-1.9,0.4l-18.4-9.8C433.1,222.4,432.2,220.8,432.1,219.4z"/>
	<path class="st2" d="M394.1,278.3l-43.9-11.2c-2.2-0.7-1.3-2.2,0.5-2.9l2.8-1.1c3.8-1.4,8-1.8,11.9-0.7l29.3,8.3
		c2.2,0.6,6.4,1.8,8.2,1.3l3.3-0.9c0.7-0.2,0.3-1-0.9-1.4l-27.8-8.3c-4.8-1.4-8.7-7.1,1.9-11.4l13.7-5.6c6.2-2.4,16.6-2.4,24.2,0.7
		l39.4,16c2.4,1,2.1,2.5,0.5,2.9l-9.3,2.5c-3.6,0.9-7.4,1.1-10.9-0.2L408,256.2c-2.7-0.9-6-2.1-8.2-1.3l-2.9,1
		c-0.8,0.3-1,1.3-0.1,1.6l21.8,7.2c12,4,10.3,10.2,4.7,11.6l-9.1,2.3C406.4,280.6,401.1,280,394.1,278.3z"/>
	<path class="st3" d="M345.3,202.9L345.3,202.9c-0.3,1.6,1.3,3.3,2.6,2.3l30.8-21.1c1.1-0.7,1.6-0.3,1.5,0.9l-0.5,7.3
		c-0.1,2-1.4,3-3.1,4.1l-24.9,16c-1.5,1-2.8,2.7-3.2,4.5l-1.5,9.6c-0.1,1,1.1,1.7,2,1.2l27.6-15.9c0.6-0.3,1.5,0.3,1.5,1l-0.5,7.2
		c-0.1,1.4-1,2.5-2.2,3.2l-35,18.6c-1.9,1-2.1,2.1-2.4,3.8l-0.6,3c-0.9,5.2,3.5,9.6,8.1,7.5l45.5-20.5c5.2-2.4,8.3-8.1,8.4-13.8
		l1-66.5c0-1.8-2.7-3.4-4.1-2.3l-39.6,30C350.3,187.9,346.7,195.1,345.3,202.9z"/>
	<polygon class="st1" points="404.6,227.9 404.6,227.9 404.6,227.9 	"/>
	<path class="st3" d="M593.5,317.5c0,1.4-0.9,2.7-2.7,2.7c-1.8,0-2.7-1.3-2.7-2.7v-1.2c0-1.4,0.9-2.6,2.7-2.6c1.8,0,2.7,1.2,2.7,2.6
		V317.5z M588.7,317.5c0,1.3,0.6,2,2,2c1.4,0,2-0.8,2-2v-1.2c0-1.2-0.6-2-2-2c-1.4,0-2,0.7-2,2V317.5z M590.7,317.3h-0.4v1.4h-0.9
		V315h1.4c1,0,1.4,0.4,1.4,1.1c0,0.5-0.2,0.8-0.7,1l0.8,1.6h-1L590.7,317.3z M590.3,316.7h0.5c0.4,0,0.5-0.2,0.5-0.5
		c0-0.3-0.1-0.5-0.5-0.5h-0.5V316.7z"/>
	<polygon class="st2" points="388.7,313.7 380.3,313.7 369.8,333.2 359.3,313.7 350.9,313.7 365.6,342.5 365.6,362.1 374,362.1 
		374,342.6 374,342.6 374,342.5 	"/>
	<path class="st2" d="M278,355.3L278,355.3h-8.1v-34.4h8.1c3.4,0,8.4,1.1,8.6,9.3V346C286.4,354.2,281.5,355.3,278,355.3 M278,313.7
		h-16.6v3.6v3.6v34.4v6.9h8.5h8.1c7.4,0,16.3-3.3,17-15.5h0v-16.4C294.8,317,285.1,313.7,278,313.7"/>
	<polygon class="st2" points="427.9,313.7 427.9,321 439.3,321 439.3,362.1 447.7,362.1 447.7,321 459.1,321 459.1,313.7 	"/>
	<polygon class="st2" points="539.2,313.7 525.2,343 511.2,313.7 503.6,313.7 503.6,362.1 511.2,362.1 511.2,329.7 522.7,353.8 
		527.6,353.8 539.2,329.6 539.2,362.1 546.7,362.1 546.7,313.7 	"/>
	<path class="st2" d="M475.3,340.4h14.8v-6.4h-14.8v-11.9c0-0.7,0.6-1.3,1.3-1.3h17.9v-7.2h-22.1c-3,0-5.4,2.4-5.4,5.4v37.5
		c0,3,2.5,5.5,5.5,5.5h22.8v-7.2h-18.7c-0.7,0-1.3-0.6-1.3-1.3V340.4z"/>
	<path class="st2" d="M586,348c0-9.1-7.1-13-15.8-14.2v0c-4.7-0.7-8.2-2.8-8.2-6.3c0-3.4,2.8-6.2,8.1-6.2v0h13.1v-7.6h-13.1v0
		c-9.8,0-15.7,5.3-15.7,13.8c0,7.6,7.1,12.5,15.8,13.8v0c4.5,0.8,8.2,3,8.2,6.6c0,3.6-2.8,6.6-8.2,6.6h-14.8v7.5h14.8v0
		C580.2,362.1,586,356.7,586,348"/>
	<path class="st2" d="M238.8,340.4h-11.5v-6.4h11.4c3.3,0,6.1-2.7,6.1-6.1v-2.1c0-2.7-2.2-5-5-5h-15.5v-7.2h17.1
		c6.5,0,11.8,5.3,11.8,11.8v3c0,3.3-1.6,7.8-6,8.6l0,0l0,0c4.4,0.9,6,5.3,6,8.6v4.6c0,6.5-5.3,11.8-11.8,11.8h-17.8v-7.2h16.3
		c2.7,0,5-2.2,5-5v-3.6C244.7,343.1,242,340.4,238.8,340.4z"/>
	<path class="st2" d="M422.9,348c0-9.1-7.1-13-15.8-14.2v0c-4.7-0.7-8.2-2.8-8.2-6.3c0-3.4,2.8-6.2,8.1-6.2v0h13.1v-7.6H407v0
		c-9.8,0-15.7,5.3-15.7,13.8c0,7.6,7.1,12.5,15.8,13.8v0c4.5,0.8,8.2,3,8.2,6.6c0,3.6-2.8,6.6-8.2,6.6h-14.8v7.5h14.8v0
		C417.1,362.1,422.9,356.7,422.9,348"/>
	<path class="st2" d="M347.8,348c0-9.1-7.1-13-15.8-14.2v0c-4.7-0.7-8.2-2.8-8.2-6.3c0-3.4,2.8-6.2,8.1-6.2v0H345v-7.6H332v0
		c-9.8,0-15.7,5.3-15.7,13.8c0,7.6,7.1,12.5,15.8,13.8v0c4.5,0.8,8.2,3,8.2,6.6c0,3.6-2.8,6.6-8.2,6.6h-14.8v7.5h14.8v0
		C342.1,362.1,347.8,356.7,347.8,348"/>
</g>
<g id="Trademarks_-_3_color_logo_-_dark_bkgrd" class="st0">
	<rect x="55.5" y="195.4" class="st2" width="685.1" height="129.9"/>
	<g class="st4">
		<path class="st5" d="M174.1,301.8v0.9H173v4.1h-1.1v-4.1h-1.1v-0.9H174.1z M179.2,301.8v5.1h-1v-3h0l-1,2.3h-0.5l-1-2.3h0v3h-1
			v-5.1h1l1.2,2.9h0l1.3-2.9H179.2z"/>
	</g>
	<polygon class="st6" points="436.6,226.8 425.1,226.8 410.7,253.4 396.3,226.8 384.8,226.8 404.9,266.1 404.9,293 416.4,293 
		416.4,266.3 416.5,266.3 416.5,266.2 	"/>
	<path class="st6" d="M285.1,283.6L285.1,283.6H274v-47.1h11.1c4.7,0,11.5,1.5,11.8,12.7v21.6C296.6,282.1,289.8,283.6,285.1,283.6
		 M285.1,226.8h-22.7v4.9v4.9v47.1v9.4H274h11.1c10.1,0,22.3-4.5,23.3-21.3h0v-22.5C308,231.3,294.8,226.8,285.1,226.8"/>
	<polygon class="st6" points="490.3,226.8 490.3,236.7 505.8,236.7 505.8,293 517.3,293 517.3,236.7 532.9,236.7 532.9,226.8 	"/>
	<polygon class="st6" points="642.4,226.8 623.3,266.9 604.1,226.8 593.7,226.8 593.7,293 604.1,293 604.1,248.6 619.9,281.7 
		626.6,281.7 642.4,248.5 642.4,293 652.8,293 652.8,226.8 	"/>
	<path class="st7" d="M147.6,260.1l-2.1-27.2c-0.1-0.8,0.5-1,1.2-0.5l3.7,2.5c9.1,6.6,11.8,13.8,13.6,25.8l1.3,9.7
		c0.1,0.8-0.8,0.7-1.5,0.3l-14.5-7.7C148.3,262.5,147.6,261.2,147.6,260.1 M155.8,225.3l-22.9-17.4c-1.1-0.8-3.2,0.1-3.2,1.4
		l0.8,53.1c0.1,4.5,2.5,8.5,6.5,10.4l35.7,16.1c3.6,1.6,7-1.5,6.4-5.4l-4.5-26.3C172.4,244.4,166,233.2,155.8,225.3"/>
	<path class="st3" d="M117.7,306.4l-34.5-8.8c-1.7-0.5-1.1-1.7,0.4-2.3l2.2-0.9c3-1.1,6.3-1.4,9.4-0.5l23,6.5c1.7,0.5,5,1.4,6.4,1
		l2.6-0.7c0.6-0.2,0.3-0.8-0.7-1.1l-21.8-6.5c-3.8-1.1-6.8-5.6,1.5-9l10.8-4.4c4.9-1.9,13.1-1.9,19,0.6l31,12.6
		c1.9,0.8,1.7,2,0.4,2.3l-7.3,1.9c-2.8,0.7-5.8,0.8-8.6-0.1l-22.8-8c-2.1-0.7-4.7-1.7-6.4-1l-2.3,0.8c-0.7,0.2-0.8,1-0.1,1.2
		l17.1,5.7c9.4,3.1,8.1,8,3.7,9.2l-7.2,1.8C127.4,308.2,123.2,307.7,117.7,306.4"/>
	<path class="st6" d="M79.3,247.1L79.3,247.1c-0.2,1.2,1,2.6,2,1.8l24.2-16.6c0.8-0.6,1.2-0.3,1.2,0.7l-0.4,5.8
		c-0.1,1.5-1.1,2.4-2.4,3.2l-19.5,12.5c-1.2,0.8-2.2,2.1-2.5,3.6l-1.2,7.5c-0.1,0.8,0.9,1.3,1.6,1l21.7-12.5
		c0.5-0.3,1.2,0.3,1.2,0.8l-0.4,5.6c-0.1,1.1-0.8,2-1.8,2.5l-27.5,14.6c-1.5,0.8-1.6,1.6-1.9,3l-0.5,2.4c-0.7,4.1,2.7,7.5,6.4,5.9
		l35.7-16.1c4.1-1.9,6.5-6.3,6.6-10.8l0.8-52.2c0-1.4-2.1-2.7-3.2-1.8l-31.1,23.6C83.3,235.3,80.4,241,79.3,247.1"/>
	<path class="st6" d="M555.1,263.3h20.3v-8.7h-20.3v-16.3c0-1,0.8-1.7,1.7-1.7h24.5v-9.8H551c-4.1,0-7.4,3.3-7.4,7.4v51.3
		c0,4.2,3.4,7.5,7.5,7.5h31.2v-9.8h-25.6c-0.9,0-1.7-0.8-1.7-1.7V263.3z"/>
	<path class="st6" d="M706.5,273.6c0-12.5-9.8-17.7-21.6-19.4v0c-6.4-1-11.3-3.8-11.3-8.6c0-4.7,3.8-8.5,11.1-8.5v0h17.9v-10.4
		h-17.9v0c-13.5,0-21.5,7.3-21.5,18.9c0,10.4,9.7,17.1,21.6,18.9v0c6.1,1.1,11.3,4.1,11.3,9.1c0,5-3.9,9-11.2,9.1h-20.2V293H685v0
		C698.6,293,706.5,285.6,706.5,273.6"/>
	<path class="st6" d="M231.4,263.3h-15.7v-8.7h15.6c4.6,0,8.3-3.7,8.3-8.3v-2.9c0-3.8-3-6.8-6.8-6.8h-21.2v-9.8h23.4
		c8.9,0,16.1,7.2,16.1,16.1v4.1c0,4.5-2.2,10.6-8.2,11.8l0,0l0,0c6,1.3,8.2,7.3,8.2,11.8v6.2c0,8.9-7.3,16.2-16.2,16.2h-24.4v-9.8
		h22.3c3.8,0,6.8-3,6.8-6.8v-4.9C239.6,267,235.9,263.3,231.4,263.3z"/>
	<path class="st6" d="M483.4,273.6c0-12.5-9.8-17.7-21.6-19.4v0c-6.4-1-11.3-3.8-11.3-8.6c0-4.7,3.8-8.5,11.1-8.5v0h17.9v-10.4
		h-17.9v0c-13.5,0-21.5,7.3-21.5,18.9c0,10.4,9.7,17.1,21.6,18.9v0c6.1,1.1,11.3,4.1,11.3,9.1c0,5-3.9,9-11.2,9.1h-20.2V293h20.2v0
		C475.5,293,483.4,285.6,483.4,273.6"/>
	<path class="st6" d="M380.7,273.6c0-12.5-9.8-17.7-21.6-19.4v0c-6.4-1-11.3-3.8-11.3-8.6c0-4.7,3.8-8.5,11.1-8.5v0h17.9v-10.4
		h-17.9v0c-13.5,0-21.5,7.3-21.5,18.9c0,10.4,9.7,17.1,21.6,18.9v0c6.1,1.1,11.3,4.1,11.3,9.1c0,5-3.9,9-11.2,9.1h-20.2V293h20.2v0
		C372.8,293,380.7,285.6,380.7,273.6"/>
	<path class="st3" d="M716.1,232c0,2-1.2,3.7-3.7,3.7c-2.5,0-3.7-1.7-3.7-3.7v-1.6c0-2,1.2-3.6,3.7-3.6c2.5,0,3.7,1.7,3.7,3.6V232z
		 M709.6,232c0,1.7,0.9,2.8,2.8,2.8c1.9,0,2.8-1,2.8-2.8v-1.7c0-1.7-0.9-2.7-2.8-2.7c-1.9,0-2.8,1-2.8,2.7V232z M712.3,231.7h-0.5
		v1.9h-1.2v-5.1h1.9c1.3,0,1.9,0.6,1.9,1.5c0,0.6-0.3,1.2-0.9,1.4l1.1,2.2h-1.3L712.3,231.7z M711.8,230.9h0.7
		c0.6,0,0.6-0.3,0.6-0.7c0-0.4-0.1-0.6-0.6-0.6h-0.7V230.9z"/>
</g>
<g id="Trademarks_-_3_color_logo_-_light_bkgrd" class="st0">
	<g class="st4">
		<path class="st5" d="M174.1,301.8v0.9H173v4.1h-1.1v-4.1h-1.1v-0.9H174.1z M179.2,301.8v5.1h-1v-3h0l-1,2.3h-0.5l-1-2.3h0v3h-1
			v-5.1h1l1.2,2.9h0l1.3-2.9H179.2z"/>
	</g>
	<path class="st3" d="M716.1,232c0,2-1.2,3.7-3.7,3.7c-2.5,0-3.7-1.7-3.7-3.7v-1.6c0-2,1.2-3.6,3.7-3.6c2.5,0,3.7,1.7,3.7,3.6V232z
		 M709.6,232c0,1.7,0.9,2.8,2.8,2.8c1.9,0,2.8-1,2.8-2.8v-1.7c0-1.7-0.9-2.7-2.8-2.7c-1.9,0-2.8,1-2.8,2.7V232z M712.3,231.7h-0.5
		v1.9h-1.2v-5.1h1.9c1.3,0,1.9,0.6,1.9,1.5c0,0.6-0.3,1.2-0.9,1.4l1.1,2.2h-1.3L712.3,231.7z M711.8,230.9h0.7
		c0.6,0,0.6-0.3,0.6-0.7c0-0.4-0.1-0.6-0.6-0.6h-0.7V230.9z"/>
	<polygon class="st2" points="436.6,226.8 425.1,226.8 410.7,253.4 396.3,226.8 384.8,226.8 404.9,266.1 404.9,293 416.4,293 
		416.4,266.3 416.5,266.3 416.5,266.2 	"/>
	<path class="st2" d="M285.1,283.6L285.1,283.6H274v-47.1h11.1c4.7,0,11.5,1.5,11.8,12.7v21.6C296.6,282.1,289.8,283.6,285.1,283.6
		 M285.1,226.8h-22.7v4.9v4.9v47.1v9.4H274h11.1c10.1,0,22.3-4.5,23.3-21.3h0v-22.5C308,231.3,294.8,226.8,285.1,226.8"/>
	<polygon class="st2" points="490.3,226.8 490.3,236.7 505.8,236.7 505.8,293 517.3,293 517.3,236.7 532.9,236.7 532.9,226.8 	"/>
	<polygon class="st2" points="642.4,226.8 623.3,266.9 604.1,226.8 593.7,226.8 593.7,293 604.1,293 604.1,248.6 619.9,281.7 
		626.6,281.7 642.4,248.5 642.4,293 652.8,293 652.8,226.8 	"/>
	<path class="st1" d="M147.6,260.1l-2.1-27.2c-0.1-0.8,0.5-1,1.2-0.5l3.7,2.5c9.1,6.6,11.8,13.8,13.6,25.8l1.3,9.7
		c0.1,0.8-0.8,0.7-1.5,0.3l-14.5-7.7C148.3,262.5,147.6,261.2,147.6,260.1 M155.8,225.3l-22.9-17.4c-1.1-0.8-3.2,0.1-3.2,1.4
		l0.8,53.1c0.1,4.5,2.5,8.5,6.5,10.4l35.7,16.1c3.6,1.6,7-1.5,6.4-5.4l-4.5-26.3C172.4,244.4,166,233.2,155.8,225.3"/>
	<path class="st2" d="M117.7,306.4l-34.5-8.8c-1.7-0.5-1.1-1.7,0.4-2.3l2.2-0.9c3-1.1,6.3-1.4,9.4-0.5l23,6.5c1.7,0.5,5,1.4,6.4,1
		l2.6-0.7c0.6-0.2,0.3-0.8-0.7-1.1l-21.8-6.5c-3.8-1.1-6.8-5.6,1.5-9l10.8-4.4c4.9-1.9,13.1-1.9,19,0.6l31,12.6
		c1.9,0.8,1.7,2,0.4,2.3l-7.3,1.9c-2.8,0.7-5.8,0.8-8.6-0.1l-22.8-8c-2.1-0.7-4.7-1.7-6.4-1l-2.3,0.8c-0.7,0.2-0.8,1-0.1,1.2
		l17.1,5.7c9.4,3.1,8.1,8,3.7,9.2l-7.2,1.8C127.4,308.2,123.2,307.7,117.7,306.4"/>
	<path class="st3" d="M79.3,247.1L79.3,247.1c-0.2,1.2,1,2.6,2,1.8l24.2-16.6c0.8-0.6,1.2-0.3,1.2,0.7l-0.4,5.8
		c-0.1,1.5-1.1,2.4-2.4,3.2l-19.5,12.5c-1.2,0.8-2.2,2.1-2.5,3.6l-1.2,7.5c-0.1,0.8,0.9,1.3,1.6,1l21.7-12.5
		c0.5-0.3,1.2,0.3,1.2,0.8l-0.4,5.6c-0.1,1.1-0.8,2-1.8,2.5l-27.5,14.6c-1.5,0.8-1.6,1.6-1.9,3l-0.5,2.4c-0.7,4.1,2.7,7.5,6.4,5.9
		l35.7-16.1c4.1-1.9,6.5-6.3,6.6-10.8l0.8-52.2c0-1.4-2.1-2.7-3.2-1.8l-31.1,23.6C83.3,235.3,80.4,241,79.3,247.1"/>
	<path class="st2" d="M555.1,263.3h20.3v-8.7h-20.3v-16.3c0-1,0.8-1.7,1.7-1.7h24.5v-9.8H551c-4.1,0-7.4,3.3-7.4,7.4v51.3
		c0,4.2,3.4,7.5,7.5,7.5h31.2v-9.8h-25.6c-0.9,0-1.7-0.8-1.7-1.7V263.3z"/>
	<path class="st2" d="M706.5,273.6c0-12.5-9.8-17.7-21.6-19.4v0c-6.4-1-11.3-3.8-11.3-8.6c0-4.7,3.8-8.5,11.1-8.5v0h17.9v-10.4
		h-17.9v0c-13.5,0-21.5,7.3-21.5,18.9c0,10.4,9.7,17.1,21.6,18.9v0c6.1,1.1,11.3,4.1,11.3,9.1c0,5-3.9,9-11.2,9.1h-20.2V293H685v0
		C698.6,293,706.5,285.6,706.5,273.6"/>
	<path class="st2" d="M231.4,263.3h-15.7v-8.7h15.6c4.6,0,8.3-3.7,8.3-8.3v-2.9c0-3.8-3-6.8-6.8-6.8h-21.2v-9.8h23.4
		c8.9,0,16.1,7.2,16.1,16.1v4.1c0,4.5-2.2,10.6-8.2,11.8l0,0l0,0c6,1.3,8.2,7.3,8.2,11.8v6.2c0,8.9-7.3,16.2-16.2,16.2h-24.4v-9.8
		h22.3c3.8,0,6.8-3,6.8-6.8v-4.9C239.6,267,235.9,263.3,231.4,263.3z"/>
	<path class="st2" d="M483.4,273.6c0-12.5-9.8-17.7-21.6-19.4v0c-6.4-1-11.3-3.8-11.3-8.6c0-4.7,3.8-8.5,11.1-8.5v0h17.9v-10.4
		h-17.9v0c-13.5,0-21.5,7.3-21.5,18.9c0,10.4,9.7,17.1,21.6,18.9v0c6.1,1.1,11.3,4.1,11.3,9.1c0,5-3.9,9-11.2,9.1h-20.2V293h20.2v0
		C475.5,293,483.4,285.6,483.4,273.6"/>
	<path class="st2" d="M380.7,273.6c0-12.5-9.8-17.7-21.6-19.4v0c-6.4-1-11.3-3.8-11.3-8.6c0-4.7,3.8-8.5,11.1-8.5v0h17.9v-10.4
		h-17.9v0c-13.5,0-21.5,7.3-21.5,18.9c0,10.4,9.7,17.1,21.6,18.9v0c6.1,1.1,11.3,4.1,11.3,9.1c0,5-3.9,9-11.2,9.1h-20.2V293h20.2v0
		C372.8,293,380.7,285.6,380.7,273.6"/>
</g>
<g id="_x31__color_logo_-_white" class="st0">
	<rect x="55.3" y="196" class="st2" width="685.1" height="129.9"/>
	<polygon class="st8" points="436.6,226.8 425.1,226.8 410.7,253.4 396.3,226.8 384.8,226.8 404.9,266.1 404.9,293 416.4,293 
		416.4,266.3 416.5,266.3 416.5,266.2 	"/>
	<path class="st8" d="M285.1,283.6L285.1,283.6H274v-47.1h11.1c4.7,0,11.5,1.5,11.8,12.7v21.6C296.6,282.1,289.8,283.6,285.1,283.6
		 M285.1,226.8h-22.7v4.9v4.9v47.1v9.4H274h11.1c10.1,0,22.3-4.5,23.3-21.3h0v-22.5C308,231.3,294.8,226.8,285.1,226.8"/>
	<polygon class="st8" points="490.3,226.8 490.3,236.7 505.8,236.7 505.8,293 517.3,293 517.3,236.7 532.9,236.7 532.9,226.8 	"/>
	<polygon class="st8" points="642.4,226.8 623.3,266.9 604.1,226.8 593.7,226.8 593.7,293 604.1,293 604.1,248.6 619.9,281.7 
		626.6,281.7 642.4,248.5 642.4,293 652.8,293 652.8,226.8 	"/>
	<path class="st8" d="M147.6,260.1l-2.1-27.2c-0.1-0.8,0.5-1,1.2-0.5l3.7,2.5c9.1,6.6,11.8,13.8,13.6,25.8l1.3,9.7
		c0.1,0.8-0.8,0.7-1.5,0.3l-14.5-7.7C148.3,262.5,147.6,261.2,147.6,260.1 M155.8,225.3l-22.9-17.4c-1.1-0.8-3.2,0.1-3.2,1.4
		l0.8,53.1c0.1,4.5,2.5,8.5,6.5,10.4l35.7,16.1c3.6,1.6,7-1.5,6.4-5.4l-4.5-26.3C172.4,244.4,166,233.2,155.8,225.3"/>
	<path class="st8" d="M117.7,306.4l-34.5-8.8c-1.7-0.5-1.1-1.7,0.4-2.3l2.2-0.9c3-1.1,6.3-1.4,9.4-0.5l23,6.5c1.7,0.5,5,1.4,6.4,1
		l2.6-0.7c0.6-0.2,0.3-0.8-0.7-1.1l-21.8-6.5c-3.8-1.1-6.8-5.6,1.5-9l10.8-4.4c4.9-1.9,13.1-1.9,19,0.6l31,12.6
		c1.9,0.8,1.7,2,0.4,2.3l-7.3,1.9c-2.8,0.7-5.8,0.8-8.6-0.1l-22.8-8c-2.1-0.7-4.7-1.7-6.4-1l-2.3,0.8c-0.7,0.2-0.8,1-0.1,1.2
		l17.1,5.7c9.4,3.1,8.1,8,3.7,9.2l-7.2,1.8C127.4,308.2,123.2,307.7,117.7,306.4"/>
	<path class="st8" d="M79.3,247.1L79.3,247.1c-0.2,1.2,1,2.6,2,1.8l24.2-16.6c0.8-0.6,1.2-0.3,1.2,0.7l-0.4,5.8
		c-0.1,1.5-1.1,2.4-2.4,3.2l-19.5,12.5c-1.2,0.8-2.2,2.1-2.5,3.6l-1.2,7.5c-0.1,0.8,0.9,1.3,1.6,1l21.7-12.5
		c0.5-0.3,1.2,0.3,1.2,0.8l-0.4,5.6c-0.1,1.1-0.8,2-1.8,2.5l-27.5,14.6c-1.5,0.8-1.6,1.6-1.9,3l-0.5,2.4c-0.7,4.1,2.7,7.5,6.4,5.9
		l35.7-16.1c4.1-1.9,6.5-6.3,6.6-10.8l0.8-52.2c0-1.4-2.1-2.7-3.2-1.8l-31.1,23.6C83.3,235.3,80.4,241,79.3,247.1"/>
	<path class="st8" d="M555.1,263.3h20.3v-8.7h-20.3v-16.3c0-1,0.8-1.7,1.7-1.7h24.5v-9.8H551c-4.1,0-7.4,3.3-7.4,7.4v51.3
		c0,4.2,3.4,7.5,7.5,7.5h31.2v-9.8h-25.6c-0.9,0-1.7-0.8-1.7-1.7V263.3z"/>
	<path class="st8" d="M706.5,273.6c0-12.5-9.8-17.7-21.6-19.4v0c-6.4-1-11.3-3.8-11.3-8.6c0-4.7,3.8-8.5,11.1-8.5v0h17.9v-10.4
		h-17.9v0c-13.5,0-21.5,7.3-21.5,18.9c0,10.4,9.7,17.1,21.6,18.9v0c6.1,1.1,11.3,4.1,11.3,9.1c0,5-3.9,9-11.2,9.1h-20.2V293H685v0
		C698.6,293,706.5,285.6,706.5,273.6"/>
	<path class="st8" d="M231.4,263.3h-15.7v-8.7h15.6c4.6,0,8.3-3.7,8.3-8.3v-2.9c0-3.8-3-6.8-6.8-6.8h-21.2v-9.8h23.4
		c8.9,0,16.1,7.2,16.1,16.1v4.1c0,4.5-2.2,10.6-8.2,11.8l0,0l0,0c6,1.3,8.2,7.3,8.2,11.8v6.2c0,8.9-7.3,16.2-16.2,16.2h-24.4v-9.8
		h22.3c3.8,0,6.8-3,6.8-6.8v-4.9C239.6,267,235.9,263.3,231.4,263.3z"/>
	<path class="st8" d="M483.4,273.6c0-12.5-9.8-17.7-21.6-19.4v0c-6.4-1-11.3-3.8-11.3-8.6c0-4.7,3.8-8.5,11.1-8.5v0h17.9v-10.4
		h-17.9v0c-13.5,0-21.5,7.3-21.5,18.9c0,10.4,9.7,17.1,21.6,18.9v0c6.1,1.1,11.3,4.1,11.3,9.1c0,5-3.9,9-11.2,9.1h-20.2V293h20.2v0
		C475.5,293,483.4,285.6,483.4,273.6"/>
	<path class="st8" d="M380.7,273.6c0-12.5-9.8-17.7-21.6-19.4v0c-6.4-1-11.3-3.8-11.3-8.6c0-4.7,3.8-8.5,11.1-8.5v0h17.9v-10.4
		h-17.9v0c-13.5,0-21.5,7.3-21.5,18.9c0,10.4,9.7,17.1,21.6,18.9v0c6.1,1.1,11.3,4.1,11.3,9.1c0,5-3.9,9-11.2,9.1h-20.2V293h20.2v0
		C372.8,293,380.7,285.6,380.7,273.6"/>
</g>
<g id="_x31__color_logo_-_black" class="st0">
	<polygon class="st4" points="436.6,226.8 425.1,226.8 410.7,253.4 396.3,226.8 384.8,226.8 404.9,266.1 404.9,293 416.4,293 
		416.4,266.3 416.5,266.3 416.5,266.2 	"/>
	<path class="st4" d="M285.1,283.6L285.1,283.6H274v-47.1h11.1c4.7,0,11.5,1.5,11.8,12.7v21.6C296.6,282.1,289.8,283.6,285.1,283.6
		 M285.1,226.8h-22.7v4.9v4.9v47.1v9.4H274h11.1c10.1,0,22.3-4.5,23.3-21.3h0v-22.5C308,231.3,294.8,226.8,285.1,226.8"/>
	<polygon class="st4" points="490.3,226.8 490.3,236.7 505.8,236.7 505.8,293 517.3,293 517.3,236.7 532.9,236.7 532.9,226.8 	"/>
	<polygon class="st4" points="642.4,226.8 623.3,266.9 604.1,226.8 593.7,226.8 593.7,293 604.1,293 604.1,248.6 619.9,281.7 
		626.6,281.7 642.4,248.5 642.4,293 652.8,293 652.8,226.8 	"/>
	<path class="st4" d="M147.6,260.1l-2.1-27.2c-0.1-0.8,0.5-1,1.2-0.5l3.7,2.5c9.1,6.6,11.8,13.8,13.6,25.8l1.3,9.7
		c0.1,0.8-0.8,0.7-1.5,0.3l-14.5-7.7C148.3,262.5,147.6,261.2,147.6,260.1 M155.8,225.3l-22.9-17.4c-1.1-0.8-3.2,0.1-3.2,1.4
		l0.8,53.1c0.1,4.5,2.5,8.5,6.5,10.4l35.7,16.1c3.6,1.6,7-1.5,6.4-5.4l-4.5-26.3C172.4,244.4,166,233.2,155.8,225.3"/>
	<path class="st4" d="M117.7,306.4l-34.5-8.8c-1.7-0.5-1.1-1.7,0.4-2.3l2.2-0.9c3-1.1,6.3-1.4,9.4-0.5l23,6.5c1.7,0.5,5,1.4,6.4,1
		l2.6-0.7c0.6-0.2,0.3-0.8-0.7-1.1l-21.8-6.5c-3.8-1.1-6.8-5.6,1.5-9l10.8-4.4c4.9-1.9,13.1-1.9,19,0.6l31,12.6
		c1.9,0.8,1.7,2,0.4,2.3l-7.3,1.9c-2.8,0.7-5.8,0.8-8.6-0.1l-22.8-8c-2.1-0.7-4.7-1.7-6.4-1l-2.3,0.8c-0.7,0.2-0.8,1-0.1,1.2
		l17.1,5.7c9.4,3.1,8.1,8,3.7,9.2l-7.2,1.8C127.4,308.2,123.2,307.7,117.7,306.4"/>
	<path class="st4" d="M79.3,247.1L79.3,247.1c-0.2,1.2,1,2.6,2,1.8l24.2-16.6c0.8-0.6,1.2-0.3,1.2,0.7l-0.4,5.8
		c-0.1,1.5-1.1,2.4-2.4,3.2l-19.5,12.5c-1.2,0.8-2.2,2.1-2.5,3.6l-1.2,7.5c-0.1,0.8,0.9,1.3,1.6,1l21.7-12.5
		c0.5-0.3,1.2,0.3,1.2,0.8l-0.4,5.6c-0.1,1.1-0.8,2-1.8,2.5l-27.5,14.6c-1.5,0.8-1.6,1.6-1.9,3l-0.5,2.4c-0.7,4.1,2.7,7.5,6.4,5.9
		l35.7-16.1c4.1-1.9,6.5-6.3,6.6-10.8l0.8-52.2c0-1.4-2.1-2.7-3.2-1.8l-31.1,23.6C83.3,235.3,80.4,241,79.3,247.1"/>
	<path class="st4" d="M555.1,263.3h20.3v-8.7h-20.3v-16.3c0-1,0.8-1.7,1.7-1.7h24.5v-9.8H551c-4.1,0-7.4,3.3-7.4,7.4v51.3
		c0,4.2,3.4,7.5,7.5,7.5h31.2v-9.8h-25.6c-0.9,0-1.7-0.8-1.7-1.7V263.3z"/>
	<path class="st4" d="M706.5,273.6c0-12.5-9.8-17.7-21.6-19.4v0c-6.4-1-11.3-3.8-11.3-8.6c0-4.7,3.8-8.5,11.1-8.5v0h17.9v-10.4
		h-17.9v0c-13.5,0-21.5,7.3-21.5,18.9c0,10.4,9.7,17.1,21.6,18.9v0c6.1,1.1,11.3,4.1,11.3,9.1c0,5-3.9,9-11.2,9.1h-20.2V293H685v0
		C698.6,293,706.5,285.6,706.5,273.6"/>
	<path class="st4" d="M231.4,263.3h-15.7v-8.7h15.6c4.6,0,8.3-3.7,8.3-8.3v-2.9c0-3.8-3-6.8-6.8-6.8h-21.2v-9.8h23.4
		c8.9,0,16.1,7.2,16.1,16.1v4.1c0,4.5-2.2,10.6-8.2,11.8l0,0l0,0c6,1.3,8.2,7.3,8.2,11.8v6.2c0,8.9-7.3,16.2-16.2,16.2h-24.4v-9.8
		h22.3c3.8,0,6.8-3,6.8-6.8v-4.9C239.6,267,235.9,263.3,231.4,263.3z"/>
	<path class="st4" d="M483.4,273.6c0-12.5-9.8-17.7-21.6-19.4v0c-6.4-1-11.3-3.8-11.3-8.6c0-4.7,3.8-8.5,11.1-8.5v0h17.9v-10.4
		h-17.9v0c-13.5,0-21.5,7.3-21.5,18.9c0,10.4,9.7,17.1,21.6,18.9v0c6.1,1.1,11.3,4.1,11.3,9.1c0,5-3.9,9-11.2,9.1h-20.2V293h20.2v0
		C475.5,293,483.4,285.6,483.4,273.6"/>
	<path class="st4" d="M380.7,273.6c0-12.5-9.8-17.7-21.6-19.4v0c-6.4-1-11.3-3.8-11.3-8.6c0-4.7,3.8-8.5,11.1-8.5v0h17.9v-10.4
		h-17.9v0c-13.5,0-21.5,7.3-21.5,18.9c0,10.4,9.7,17.1,21.6,18.9v0c6.1,1.1,11.3,4.1,11.3,9.1c0,5-3.9,9-11.2,9.1h-20.2V293h20.2v0
		C372.8,293,380.7,285.6,380.7,273.6"/>
</g>
-->
<g id="No_trademarks_-_3_color_logo_-_dark_bkgrd_copy">
<!--		
	<polygon class="st9" points="436.6,226.8 425.1,226.8 410.7,253.4 396.3,226.8 384.8,226.8 404.9,266.1 404.9,293 416.4,293 
		416.4,266.3 416.5,266.3 416.5,266.2 	"/>
	<path class="st9" d="M285.1,283.6L285.1,283.6H274v-47.1h11.1c4.7,0,11.5,1.5,11.8,12.7v21.6C296.6,282.1,289.8,283.6,285.1,283.6
		 M285.1,226.8h-22.7v4.9v4.9v47.1v9.4H274h11.1c10.1,0,22.3-4.5,23.3-21.3h0v-22.5C308,231.3,294.8,226.8,285.1,226.8"/>
	<polygon class="st9" points="490.3,226.8 490.3,236.7 505.8,236.7 505.8,293 517.3,293 517.3,236.7 532.9,236.7 532.9,226.8 	"/>
	<polygon class="st9" points="642.4,226.8 623.3,266.9 604.1,226.8 593.7,226.8 593.7,293 604.1,293 604.1,248.6 619.9,281.7 
		626.6,281.7 642.4,248.5 642.4,293 652.8,293 652.8,226.8 	"/>
-->
	<path class="st10" d="M147.6,260.1l-2.1-27.2c-0.1-0.8,0.5-1,1.2-0.5l3.7,2.5c9.1,6.6,11.8,13.8,13.6,25.8l1.3,9.7
		c0.1,0.8-0.8,0.7-1.5,0.3l-14.5-7.7C148.3,262.5,147.6,261.2,147.6,260.1 M155.8,225.3l-22.9-17.4c-1.1-0.8-3.2,0.1-3.2,1.4
		l0.8,53.1c0.1,4.5,2.5,8.5,6.5,10.4l35.7,16.1c3.6,1.6,7-1.5,6.4-5.4l-4.5-26.3C172.4,244.4,166,233.2,155.8,225.3"/>
	<path class="st5" d="M117.7,306.4l-34.5-8.8c-1.7-0.5-1.1-1.7,0.4-2.3l2.2-0.9c3-1.1,6.3-1.4,9.4-0.5l23,6.5c1.7,0.5,5,1.4,6.4,1
		l2.6-0.7c0.6-0.2,0.3-0.8-0.7-1.1l-21.8-6.5c-3.8-1.1-6.8-5.6,1.5-9l10.8-4.4c4.9-1.9,13.1-1.9,19,0.6l31,12.6
		c1.9,0.8,1.7,2,0.4,2.3l-7.3,1.9c-2.8,0.7-5.8,0.8-8.6-0.1l-22.8-8c-2.1-0.7-4.7-1.7-6.4-1l-2.3,0.8c-0.7,0.2-0.8,1-0.1,1.2
		l17.1,5.7c9.4,3.1,8.1,8,3.7,9.2l-7.2,1.8C127.4,308.2,123.2,307.7,117.7,306.4"/>
	<path class="st9" d="M79.3,247.1L79.3,247.1c-0.2,1.2,1,2.6,2,1.8l24.2-16.6c0.8-0.6,1.2-0.3,1.2,0.7l-0.4,5.8
		c-0.1,1.5-1.1,2.4-2.4,3.2l-19.5,12.5c-1.2,0.8-2.2,2.1-2.5,3.6l-1.2,7.5c-0.1,0.8,0.9,1.3,1.6,1l21.7-12.5
		c0.5-0.3,1.2,0.3,1.2,0.8l-0.4,5.6c-0.1,1.1-0.8,2-1.8,2.5l-27.5,14.6c-1.5,0.8-1.6,1.6-1.9,3l-0.5,2.4c-0.7,4.1,2.7,7.5,6.4,5.9
		l35.7-16.1c4.1-1.9,6.5-6.3,6.6-10.8l0.8-52.2c0-1.4-2.1-2.7-3.2-1.8l-31.1,23.6C83.3,235.3,80.4,241,79.3,247.1"/>
<!--	
	<path class="st9" d="M555.1,263.3h20.3v-8.7h-20.3v-16.3c0-1,0.8-1.7,1.7-1.7h24.5v-9.8H551c-4.1,0-7.4,3.3-7.4,7.4v51.3
		c0,4.2,3.4,7.5,7.5,7.5h31.2v-9.8h-25.6c-0.9,0-1.7-0.8-1.7-1.7V263.3z"/>
	<path class="st9" d="M706.5,273.6c0-12.5-9.8-17.7-21.6-19.4v0c-6.4-1-11.3-3.8-11.3-8.6c0-4.7,3.8-8.5,11.1-8.5v0h17.9v-10.4
		h-17.9v0c-13.5,0-21.5,7.3-21.5,18.9c0,10.4,9.7,17.1,21.6,18.9v0c6.1,1.1,11.3,4.1,11.3,9.1c0,5-3.9,9-11.2,9.1h-20.2V293H685v0
		C698.6,293,706.5,285.6,706.5,273.6"/>
	<path class="st9" d="M231.4,263.3h-15.7v-8.7h15.6c4.6,0,8.3-3.7,8.3-8.3v-2.9c0-3.8-3-6.8-6.8-6.8h-21.2v-9.8h23.4
		c8.9,0,16.1,7.2,16.1,16.1v4.1c0,4.5-2.2,10.6-8.2,11.8l0,0l0,0c6,1.3,8.2,7.3,8.2,11.8v6.2c0,8.9-7.3,16.2-16.2,16.2h-24.4v-9.8
		h22.3c3.8,0,6.8-3,6.8-6.8v-4.9C239.6,267,235.9,263.3,231.4,263.3z"/>
	<path class="st9" d="M483.4,273.6c0-12.5-9.8-17.7-21.6-19.4v0c-6.4-1-11.3-3.8-11.3-8.6c0-4.7,3.8-8.5,11.1-8.5v0h17.9v-10.4
		h-17.9v0c-13.5,0-21.5,7.3-21.5,18.9c0,10.4,9.7,17.1,21.6,18.9v0c6.1,1.1,11.3,4.1,11.3,9.1c0,5-3.9,9-11.2,9.1h-20.2V293h20.2v0
		C475.5,293,483.4,285.6,483.4,273.6"/>
	<path class="st9" d="M380.7,273.6c0-12.5-9.8-17.7-21.6-19.4v0c-6.4-1-11.3-3.8-11.3-8.6c0-4.7,3.8-8.5,11.1-8.5v0h17.9v-10.4
		h-17.9v0c-13.5,0-21.5,7.3-21.5,18.9c0,10.4,9.7,17.1,21.6,18.9v0c6.1,1.1,11.3,4.1,11.3,9.1c0,5-3.9,9-11.2,9.1h-20.2V293h20.2v0
		C372.8,293,380.7,285.6,380.7,273.6"/>
-->
</g>
<!--
<g id="No_trademarks_-_3_color_logo_-_light_bkgrd_copy" class="st0">
	<polygon class="st2" points="436.6,226.8 425.1,226.8 410.7,253.4 396.3,226.8 384.8,226.8 404.9,266.1 404.9,293 416.4,293 
		416.4,266.3 416.5,266.3 416.5,266.2 	"/>
	<path class="st2" d="M285.1,283.6L285.1,283.6H274v-47.1h11.1c4.7,0,11.5,1.5,11.8,12.7v21.6C296.6,282.1,289.8,283.6,285.1,283.6
		 M285.1,226.8h-22.7v4.9v4.9v47.1v9.4H274h11.1c10.1,0,22.3-4.5,23.3-21.3h0v-22.5C308,231.3,294.8,226.8,285.1,226.8"/>
	<polygon class="st2" points="490.3,226.8 490.3,236.7 505.8,236.7 505.8,293 517.3,293 517.3,236.7 532.9,236.7 532.9,226.8 	"/>
	<polygon class="st2" points="642.4,226.8 623.3,266.9 604.1,226.8 593.7,226.8 593.7,293 604.1,293 604.1,248.6 619.9,281.7 
		626.6,281.7 642.4,248.5 642.4,293 652.8,293 652.8,226.8 	"/>
	<path class="st1" d="M147.6,260.1l-2.1-27.2c-0.1-0.8,0.5-1,1.2-0.5l3.7,2.5c9.1,6.6,11.8,13.8,13.6,25.8l1.3,9.7
		c0.1,0.8-0.8,0.7-1.5,0.3l-14.5-7.7C148.3,262.5,147.6,261.2,147.6,260.1 M155.8,225.3l-22.9-17.4c-1.1-0.8-3.2,0.1-3.2,1.4
		l0.8,53.1c0.1,4.5,2.5,8.5,6.5,10.4l35.7,16.1c3.6,1.6,7-1.5,6.4-5.4l-4.5-26.3C172.4,244.4,166,233.2,155.8,225.3"/>
	<path class="st2" d="M117.7,306.4l-34.5-8.8c-1.7-0.5-1.1-1.7,0.4-2.3l2.2-0.9c3-1.1,6.3-1.4,9.4-0.5l23,6.5c1.7,0.5,5,1.4,6.4,1
		l2.6-0.7c0.6-0.2,0.3-0.8-0.7-1.1l-21.8-6.5c-3.8-1.1-6.8-5.6,1.5-9l10.8-4.4c4.9-1.9,13.1-1.9,19,0.6l31,12.6
		c1.9,0.8,1.7,2,0.4,2.3l-7.3,1.9c-2.8,0.7-5.8,0.8-8.6-0.1l-22.8-8c-2.1-0.7-4.7-1.7-6.4-1l-2.3,0.8c-0.7,0.2-0.8,1-0.1,1.2
		l17.1,5.7c9.4,3.1,8.1,8,3.7,9.2l-7.2,1.8C127.4,308.2,123.2,307.7,117.7,306.4"/>
	<path class="st3" d="M79.3,247.1L79.3,247.1c-0.2,1.2,1,2.6,2,1.8l24.2-16.6c0.8-0.6,1.2-0.3,1.2,0.7l-0.4,5.8
		c-0.1,1.5-1.1,2.4-2.4,3.2l-19.5,12.5c-1.2,0.8-2.2,2.1-2.5,3.6l-1.2,7.5c-0.1,0.8,0.9,1.3,1.6,1l21.7-12.5
		c0.5-0.3,1.2,0.3,1.2,0.8l-0.4,5.6c-0.1,1.1-0.8,2-1.8,2.5l-27.5,14.6c-1.5,0.8-1.6,1.6-1.9,3l-0.5,2.4c-0.7,4.1,2.7,7.5,6.4,5.9
		l35.7-16.1c4.1-1.9,6.5-6.3,6.6-10.8l0.8-52.2c0-1.4-2.1-2.7-3.2-1.8l-31.1,23.6C83.3,235.3,80.4,241,79.3,247.1"/>
	<path class="st2" d="M555.1,263.3h20.3v-8.7h-20.3v-16.3c0-1,0.8-1.7,1.7-1.7h24.5v-9.8H551c-4.1,0-7.4,3.3-7.4,7.4v51.3
		c0,4.2,3.4,7.5,7.5,7.5h31.2v-9.8h-25.6c-0.9,0-1.7-0.8-1.7-1.7V263.3z"/>
	<path class="st2" d="M706.5,273.6c0-12.5-9.8-17.7-21.6-19.4v0c-6.4-1-11.3-3.8-11.3-8.6c0-4.7,3.8-8.5,11.1-8.5v0h17.9v-10.4
		h-17.9v0c-13.5,0-21.5,7.3-21.5,18.9c0,10.4,9.7,17.1,21.6,18.9v0c6.1,1.1,11.3,4.1,11.3,9.1c0,5-3.9,9-11.2,9.1h-20.2V293H685v0
		C698.6,293,706.5,285.6,706.5,273.6"/>
	<path class="st2" d="M231.4,263.3h-15.7v-8.7h15.6c4.6,0,8.3-3.7,8.3-8.3v-2.9c0-3.8-3-6.8-6.8-6.8h-21.2v-9.8h23.4
		c8.9,0,16.1,7.2,16.1,16.1v4.1c0,4.5-2.2,10.6-8.2,11.8l0,0l0,0c6,1.3,8.2,7.3,8.2,11.8v6.2c0,8.9-7.3,16.2-16.2,16.2h-24.4v-9.8
		h22.3c3.8,0,6.8-3,6.8-6.8v-4.9C239.6,267,235.9,263.3,231.4,263.3z"/>
	<path class="st2" d="M483.4,273.6c0-12.5-9.8-17.7-21.6-19.4v0c-6.4-1-11.3-3.8-11.3-8.6c0-4.7,3.8-8.5,11.1-8.5v0h17.9v-10.4
		h-17.9v0c-13.5,0-21.5,7.3-21.5,18.9c0,10.4,9.7,17.1,21.6,18.9v0c6.1,1.1,11.3,4.1,11.3,9.1c0,5-3.9,9-11.2,9.1h-20.2V293h20.2v0
		C475.5,293,483.4,285.6,483.4,273.6"/>
	<path class="st2" d="M380.7,273.6c0-12.5-9.8-17.7-21.6-19.4v0c-6.4-1-11.3-3.8-11.3-8.6c0-4.7,3.8-8.5,11.1-8.5v0h17.9v-10.4
		h-17.9v0c-13.5,0-21.5,7.3-21.5,18.9c0,10.4,9.7,17.1,21.6,18.9v0c6.1,1.1,11.3,4.1,11.3,9.1c0,5-3.9,9-11.2,9.1h-20.2V293h20.2v0
		C372.8,293,380.7,285.6,380.7,273.6"/>
</g>
-->
</svg>
