<?xml version="1.0" encoding="utf-8"?>
<!-- Generator: Adobe Illustrator 19.2.1, SVG Export Plug-In . SVG Version: 6.00 Build 0)  -->
<svg version="1.1" id="Trademarks_-_3_color_logo_-_dark_bkgrd"
	 xmlns="http://www.w3.org/2000/svg" xmlns:xlink="http://www.w3.org/1999/xlink" x="0px" y="0px" viewBox="0 0 1039 87"
	 style="enable-background:new 0 0 1039 87;" xml:space="preserve">
<style type="text/css">
	.st0{fill:#F0F0F0;}
	.st1{fill:#B3B3B3;}
	.st2{fill:#808080;}
	.st3{enable-background:new    ;}
</style>
<title>3d-systems-odm-logo-dark-bkgrd-no-tm</title>
<polygon class="st0" points="239.5,23.1 232.5,23.1 223.7,39.5 214.8,23.1 207.8,23.1 220.1,47.2 220.1,63.7 227.1,63.7 227.1,47.3 
	227.2,47.3 227.2,47.3 "/>
<path class="st0" d="M146.8,57.9H140V29.1h6.8c2.9,0,7,0.9,7.2,7.8v13.2C153.8,57,149.7,57.9,146.8,57.9 M146.8,23.2h-13.9v40.5
	h13.9c6.2,0,13.6-2.8,14.3-13l0,0V36.9C160.8,25.9,152.7,23.2,146.8,23.2"/>
<polygon class="st0" points="272.3,23.1 272.3,29.2 281.9,29.2 281.9,63.7 288.9,63.7 288.9,29.2 298.4,29.2 298.4,23.1 "/>
<polygon class="st0" points="365.5,23.1 353.7,47.7 342,23.1 335.7,23.1 335.7,63.7 342,63.7 342,36.5 351.7,56.7 355.8,56.7 
	365.5,36.5 365.5,63.7 371.8,63.7 371.8,23.1 "/>
<path class="st1" d="M62.6,43.5l-1.3-16.7c0-0.5,0.3-0.6,0.7-0.3l2.2,1.5c5.6,4,7.2,8.5,8.3,15.8l0.8,5.9c0.1,0.5-0.5,0.5-0.9,0.2
	l-8.9-4.7C63.1,44.9,62.7,44.3,62.6,43.5 M67.6,22.2l-14-10.7c-0.6-0.4-1.4-0.2-1.8,0.4c-0.1,0.1-0.2,0.3-0.2,0.5l0.5,32.5
	c0,2.7,1.5,5.2,4,6.4L78,61.1c1.4,0.6,3.1,0,3.7-1.4c0.3-0.6,0.3-1.2,0.2-1.9l-2.7-16.1C77.9,34,73.8,27.1,67.6,22.2"/>
<path class="st2" d="M44.3,71.9l-21.1-5.4c-1-0.3-0.6-1.1,0.2-1.4l1.3-0.5c1.8-0.7,3.8-0.8,5.7-0.3l14.1,4c1,0.3,3.1,0.9,3.9,0.6
	l1.6-0.5c0.3-0.1,0.2-0.5-0.4-0.7l-13.4-4c-2.3-0.7-4.2-3.4,0.9-5.5l6.6-2.7c3.8-1.2,7.9-1.1,11.6,0.3l19,7.7c1.2,0.5,1,1.2,0.2,1.4
	l-4.5,1.2c-1.7,0.5-3.5,0.5-5.2-0.1l-14-4.9c-1.3-0.5-2.9-1-4-0.6l-1.4,0.5c-0.4,0.2-0.5,0.6-0.1,0.8l10.5,3.5
	c5.8,1.9,5,4.9,2.3,5.6L54,72C50.8,72.8,47.5,72.8,44.3,71.9"/>
<path class="st0" d="M20.9,35.6L20.9,35.6c-0.1,0.8,0.6,1.6,1.2,1.1l14.8-10.1c0.5-0.4,0.8-0.2,0.7,0.4l-0.3,3.5
	c-0.1,0.9-0.7,1.6-1.5,1.9l-12,7.7c-0.8,0.5-1.3,1.3-1.5,2.2l-0.7,4.6c0,0.4,0.3,0.7,0.6,0.7c0.1,0,0.2,0,0.4-0.1l13.3-7.7
	c0.3-0.1,0.6,0.1,0.7,0.3c0,0.1,0,0.1,0,0.2l-0.3,3.4c-0.1,0.7-0.5,1.2-1.1,1.5l-16.8,8.9c-0.7,0.3-1.1,1-1.1,1.8L17,57.5
	c-0.5,2.5,1.7,4.6,3.9,3.6l21.9-9.9c2.5-1.3,4-3.8,4-6.6l0.5-32c-0.1-0.8-0.7-1.3-1.5-1.3c-0.2,0-0.3,0.1-0.5,0.1L26.3,26
	C23.4,28.4,21.4,31.8,20.9,35.6"/>
<path class="st0" d="M312,45.5h12.4v-5.3H312v-9.9c0-0.6,0.4-1,1-1h15v-6h-18.5c-2.5,0-4.5,2-4.5,4.5v31.4c0,2.5,2,4.6,4.6,4.6
	c0,0,0,0,0,0h19.1v-6H313c-0.6,0-1-0.5-1-1.1V45.5z"/>
<path class="st0" d="M404.6,51.8c0-7.6-6-10.9-13.2-11.9l0,0c-3.9-0.6-6.9-2.3-6.9-5.2s2.3-5.2,6.8-5.2h10.9v-6.3h-10.9
	c-8.2,0-13.1,4.4-13.1,11.5c0,6.4,5.9,10.5,13.2,11.5l0,0c3.8,0.7,6.9,2.5,6.9,5.5s-2.4,5.5-6.9,5.5h-12.4v6.3h12.4
	C399.8,63.6,404.6,59.1,404.6,51.8"/>
<path class="st0" d="M113.9,45.5h-9.6v-5.3h9.5c2.8,0,5.1-2.3,5.1-5.1v-1.8c0-2.3-1.9-4.2-4.2-4.2l0,0h-13v-6h14.3
	c5.4,0,9.8,4.4,9.9,9.8c0,0,0,0,0,0v2.5c0,2.8-1.4,6.5-5,7.2l0,0c3.7,0.8,5,4.4,5,7.2v3.8c0,5.5-4.5,9.9-9.9,9.9h0h-14.9v-6h13.7
	c2.3,0,4.2-1.9,4.2-4.2v0v-3C118.9,47.7,116.7,45.5,113.9,45.5C113.9,45.5,113.9,45.5,113.9,45.5z"/>
<path class="st0" d="M268.1,51.8c0-7.6-6-10.9-13.2-11.9l0,0c-3.9-0.6-6.9-2.3-6.9-5.2s2.3-5.2,6.8-5.2h10.9v-6.3h-10.9
	c-8.2,0-13.1,4.4-13.1,11.5c0,6.4,5.9,10.5,13.2,11.5l0,0c3.8,0.7,6.9,2.5,6.9,5.5s-2.4,5.5-6.9,5.5h-12.4v6.3H255
	C263.3,63.6,268.2,59.1,268.1,51.8"/>
<path class="st0" d="M205.3,51.8c0-7.6-6-10.9-13.2-11.9l0,0c-3.9-0.6-6.9-2.3-6.9-5.2s2.3-5.2,6.8-5.2h10.9v-6.3H192
	c-8.2,0-13.1,4.4-13.1,11.5c0,6.4,5.9,10.5,13.2,11.5l0,0c3.8,0.7,6.9,2.5,6.9,5.5s-2.4,5.5-6.9,5.5h-12.4v6.3h12.4
	C200.4,63.6,205.3,59.1,205.3,51.8"/>
<g class="st3">
	<path class="st1" d="M452.9,36.2v13.6c0,8.6-5,14-14.1,14s-14-5.4-14-14V36.2c0-8.6,4.9-14,14-14S452.9,27.6,452.9,36.2z
		 M445.9,36.2c0-5.6-2.3-8.3-7.1-8.3c-4.8,0-7,2.6-7,8.3v13.6c0,5.8,2.3,8.4,7,8.4c4.8,0,7.1-2.7,7.1-8.4V36.2z"/>
	<path class="st1" d="M465.1,63.3h-6.3V34.9h5.6l0.2,2.7h0.1c1.9-2.2,4.5-3.2,7.7-3.2c5.9,0,9.1,4.1,9.1,10.7v18.2h-6.2v-18
		c0-3.9-1.6-5.8-4.8-5.8c-2.5,0-4.4,1.2-5.4,2.7V63.3z"/>
	<path class="st1" d="M514.1,22.7c9,0,14.2,5.5,14.2,14.1v12.3c0,8.6-5.2,14.1-14.2,14.1h-13.9V22.7H514.1z M514.1,28.6h-6.9v29h6.9
		c4.8,0,7.2-2.5,7.2-8.6V37.2C521.3,31.2,518.9,28.6,514.1,28.6z"/>
	<path class="st1" d="M539.5,49.9v3.3c0,3.9,1.8,5.9,5.4,5.9c2.7,0,4.3-1.2,5.5-4.2l4.5,1.7c-1.6,4.9-4.9,7.3-10.6,7.3
		c-7.1,0-11-4.4-11-10.4v-8.7c0-5.7,3.7-10.3,10.9-10.3c6.9,0,10.6,4.7,10.6,10.6v4.9H539.5z M539.5,46.2h9.7v-2
		c0-3.4-1.8-5.2-4.9-5.2c-3.4,0-4.9,2-4.9,5.3V46.2z"/>
	<path class="st1" d="M581.1,63.3h-6.2V45.2c0-4.1-1.6-5.6-4-5.6c-2,0-3.7,1.3-4.6,3.3v20.5H560V34.9h5.6v3h0.1
		c1.7-2.3,4.2-3.5,7.1-3.5c3,0,5.4,1.3,6.8,4.1c1.7-2.6,4.5-4.1,7.8-4.1c5.5,0,8.6,3.4,8.6,10.8v18.1h-6.2V45.2
		c0-3.6-1.3-5.6-4.2-5.6c-2.5,0-4.4,1.6-4.4,5.6V63.3z"/>
	<path class="st1" d="M601.6,40.9c2-3.9,5.2-6.6,10.2-6.6c6.8,0,9.4,4.2,9.4,9.7v13.4c0,1.3,0.7,2.1,2,2.1h0.7v3.6
		c-0.8,0.2-1.9,0.4-2.9,0.4c-2.6,0-4.2-1.1-5.1-2.6c-2,1.9-4.5,2.7-7.3,2.7c-5,0-8-3.2-8-7.8c0-5,3-9.2,12.4-9.2h2V44
		c0-3.5-1.4-4.9-4.1-4.9c-2.2,0-4.1,1.3-5.5,3.9L601.6,40.9z M615,57.3v-6.4h-2c-4.9,0-6.4,1.8-6.4,4.6c0,2.9,1.3,4,3.6,4
		C612.3,59.5,613.8,58.7,615,57.3z"/>
	<path class="st1" d="M634.2,63.3H628V34.9h5.6l0.2,2.7h0.1c1.9-2.2,4.5-3.2,7.7-3.2c5.9,0,9.1,4.1,9.1,10.7v18.2h-6.2v-18
		c0-3.9-1.6-5.8-4.8-5.8c-2.5,0-4.4,1.2-5.4,2.7V63.3z"/>
	<path class="st1" d="M671.9,36.8h0.1V21.5h6.3v41.8h-5.5l-0.3-2.6h-0.1c-1.9,2.1-4.5,3.1-7.7,3.1c-5.8,0-9-4.1-9-10.7v-8
		c0-6.6,3.2-10.7,9.4-10.7C667.7,34.3,670.1,35.2,671.9,36.8z M672,41.9c-1.1-1.5-2.8-2.6-5.3-2.6c-3.2,0-4.9,1.9-4.9,5.9v7.9
		c0,3.7,1.6,5.7,4.8,5.7c2.5,0,4.3-1.2,5.4-2.7V41.9z"/>
	<path class="st1" d="M734,22.7v40.5h-6.4V36.4h-0.1l-10.1,20h-3.1l-10.1-20h-0.1v26.9h-6.3V22.7h6.5l11.6,24.5h0.1l11.5-24.5H734z"
		/>
	<path class="st1" d="M740.9,40.9c2-3.9,5.2-6.6,10.2-6.6c6.8,0,9.4,4.2,9.4,9.7v13.4c0,1.3,0.7,2.1,2,2.1h0.7v3.6
		c-0.8,0.2-1.9,0.4-2.9,0.4c-2.6,0-4.2-1.1-5.1-2.6c-2,1.9-4.5,2.7-7.3,2.7c-5,0-8-3.2-8-7.8c0-5,3-9.2,12.4-9.2h2V44
		c0-3.5-1.4-4.9-4.1-4.9c-2.2,0-4.1,1.3-5.5,3.9L740.9,40.9z M754.3,57.3v-6.4h-2c-4.9,0-6.4,1.8-6.4,4.6c0,2.9,1.3,4,3.6,4
		C751.6,59.5,753,58.7,754.3,57.3z"/>
	<path class="st1" d="M773.5,63.3h-6.3V34.9h5.6l0.2,2.7h0.1c1.9-2.2,4.5-3.2,7.7-3.2c5.9,0,9.1,4.1,9.1,10.7v18.2h-6.2v-18
		c0-3.9-1.6-5.8-4.8-5.8c-2.5,0-4.4,1.2-5.4,2.7V63.3z"/>
	<path class="st1" d="M811.7,34.9h6.2v28.4h-5.5l-0.2-2.7h-0.1c-2,2.1-4.6,3.2-7.8,3.2c-5.8,0-9-4.1-9-10.7V34.9h6.3v18.2
		c0,3.7,1.6,5.7,4.8,5.7c2.5,0,4.4-1.2,5.4-2.7V34.9z"/>
	<path class="st1" d="M838.1,39.5h-6.3v23.8h-6.3V39.5h-3.3v-4.5h3.3v-2c0-5.6,3.1-10.2,12-10.5l0.3,4.4c-4.8,0.2-6.3,2.6-6.3,6.2
		v1.9h6.6V39.5z"/>
	<path class="st1" d="M841.8,40.9c2-3.9,5.2-6.6,10.2-6.6c6.8,0,9.4,4.2,9.4,9.7v13.4c0,1.3,0.7,2.1,2,2.1h0.7v3.6
		c-0.8,0.2-1.9,0.4-2.9,0.4c-2.6,0-4.2-1.1-5.1-2.6c-2,1.9-4.5,2.7-7.3,2.7c-5,0-8-3.2-8-7.8c0-5,3-9.2,12.4-9.2h2V44
		c0-3.5-1.4-4.9-4.1-4.9c-2.2,0-4.1,1.3-5.5,3.9L841.8,40.9z M855.2,57.3v-6.4h-2c-4.9,0-6.4,1.8-6.4,4.6c0,2.9,1.3,4,3.6,4
		C852.5,59.5,854,58.7,855.2,57.3z"/>
	<path class="st1" d="M883.5,42.9c-1-2.6-2.7-3.6-5-3.6c-3.2,0-5.1,1.7-5.1,5.6v8.3c0,3.9,1.8,5.8,5.1,5.8c2.5,0,4-1.1,5-3.9
		l4.5,1.7c-1.6,4.4-4.9,7-10.1,7c-7.1,0-10.7-4.7-10.7-10.3v-8.8c0-5.8,3.7-10.3,10.7-10.3c4.7,0,8.3,2.5,10,6.8L883.5,42.9z"/>
	<path class="st1" d="M906.1,39.6h-6.4v15.6c0,2.7,1.3,3.9,3.5,3.9c0.8,0,1.6-0.2,2.4-0.4l0.6,3.9c-1.5,0.8-3.1,1.3-5.2,1.3
		c-5.4,0-7.5-3.1-7.5-8.8v-15l-3.4-0.9v-4l3.7-0.3l1.6-7.8h4.4v8h6.4V39.6z"/>
	<path class="st1" d="M926.8,34.9h6.2v28.4h-5.5l-0.2-2.7h-0.1c-2,2.1-4.6,3.2-7.8,3.2c-5.8,0-9-4.1-9-10.7V34.9h6.3v18.2
		c0,3.7,1.6,5.7,4.8,5.7c2.5,0,4.4-1.2,5.4-2.7V34.9z"/>
	<path class="st1" d="M954.8,40.9c-0.8-0.5-1.7-0.7-2.7-0.7c-3.7,0-5.8,2.7-6.3,7.3v15.8h-6.3V34.9h5.4l0.3,4.7h0.1
		c1.6-3.7,4-5.1,6.9-5.1c1.1,0,2.3,0.3,3.2,0.7L954.8,40.9z"/>
	<path class="st1" d="M966.3,34.9v28.4h-6.3V34.9H966.3z M966.1,22.7v6.6h-5.8v-6.6H966.1z"/>
	<path class="st1" d="M979.6,63.3h-6.3V34.9h5.6l0.2,2.7h0.1c1.9-2.2,4.5-3.2,7.7-3.2c5.9,0,9.1,4.1,9.1,10.7v18.2h-6.2v-18
		c0-3.9-1.6-5.8-4.8-5.8c-2.5,0-4.4,1.2-5.4,2.7V63.3z"/>
	<path class="st1" d="M1007.5,52.9c-1.1,0.6-1.7,1.3-1.7,2.1c0,1.1,0.8,1.8,3.1,1.8h6.2c6.9,0,9.4,2.8,9.4,7.2
		c0,5.8-4.5,9.1-12.3,9.1c-7.7,0-10.7-2.9-10.7-7c0-2,0.8-3.9,2.2-5.1c-1.8-1-2.9-2.6-2.9-4.7c0-1.9,1.2-3.8,3.6-5.1
		c-1.7-1.6-2.6-4-2.6-7.3c0-6.5,3.2-9.6,10.3-9.6c2.5,0,4.6,0.4,6.2,1.2c1.6-0.9,2.9-2.3,3.4-3.6l2.9,1.2c-0.3,2.2-1.5,4.2-3,5.6
		c0.7,1.5,1.1,3.2,1.1,5.3c0,6.4-3.4,9.4-10.6,9.4C1010.4,53.5,1008.8,53.3,1007.5,52.9z M1008.3,61.9c-1.2,0.8-1.6,1.9-1.6,3.5
		c0,2.4,1.9,3.5,5.8,3.5c5.5,0,6.5-1.8,6.5-4c0-2.1-0.9-3-4.3-3H1008.3z M1012.2,49.2c3.5,0,4.5-1,4.5-5.1c0-4.1-1.2-5.2-4.5-5.2
		c-3.4,0-4.5,1.1-4.5,5.2C1007.8,48.2,1008.8,49.2,1012.2,49.2z"/>
</g>
</svg>
