<?xml version="1.0" encoding="utf-8"?>
<!-- Generator: Adobe Illustrator 19.2.1, SVG Export Plug-In . SVG Version: 6.00 Build 0)  -->
<svg version="1.1" id="Trademarks_-_3_color_logo_-_light_bkgrd"
	 xmlns="http://www.w3.org/2000/svg" xmlns:xlink="http://www.w3.org/1999/xlink" x="0px" y="0px" viewBox="0 0 633.4 153.6"
	 style="enable-background:new 0 0 633.4 153.6;" xml:space="preserve">
<style type="text/css">
	.st0{fill:#F0F0F0;}
	.st1{fill:#B3B3B3;}
	.st2{fill:#808080;}
	.st3{enable-background:new    ;}
</style>
<title>3d-systems-odm-logo-dark-bkgrd-no-tm</title>
<polygon class="st0" points="363.6,19.1 352.1,19.1 337.7,45.6 323.3,19.1 311.8,19.1 331.9,58.1 331.9,84.8 343.4,84.8 343.4,58.3 
	343.5,58.3 343.5,58.2 "/>
<path class="st0" d="M212.1,75.5H201V28.8h11.1c4.7,0,11.5,1.5,11.8,12.6v21.5C223.6,74,216.9,75.5,212.1,75.5 M212.1,19.1h-22.7
	v65.7h22.7c10.1,0,22.3-4.5,23.3-21.1l0,0V41.4C235,23.6,221.8,19.1,212.1,19.1"/>
<polygon class="st0" points="417.2,19.1 417.2,29 432.8,29 432.8,84.8 444.3,84.8 444.3,29 459.9,29 459.9,19.1 "/>
<polygon class="st0" points="569.4,19.1 550.2,58.9 531.1,19.1 520.7,19.1 520.7,84.8 531.1,84.8 531.1,40.7 546.9,73.6 553.6,73.6 
	569.4,40.7 569.4,84.8 579.8,84.8 579.8,19.1 "/>
<path class="st1" d="M74.6,52.1l-2.1-27c-0.1-0.8,0.5-1,1.2-0.5l3.7,2.5c9.1,6.6,11.8,13.7,13.6,25.6l1.3,9.6
	c0.1,0.8-0.8,0.7-1.5,0.3L76.3,55C75.3,54.4,74.7,53.3,74.6,52.1 M82.8,17.6L59.9,0.3c-1.1-0.8-3.2,0.1-3.1,1.4l0.8,52.6
	c0,4.4,2.5,8.5,6.5,10.3l35.7,16c3.6,1.6,7-1.5,6.4-5.3l-4.5-26.1C99.6,36.7,92.8,25.4,82.8,17.6"/>
<path class="st2" d="M44.7,98.1l-34.5-8.7c-1.7-0.5-1.1-1.7,0.4-2.3l2.2-0.9c3-1.1,6.3-1.3,9.3-0.5l23,6.5c1.7,0.5,5,1.4,6.4,1
	l2.6-0.7c0.6-0.2,0.3-0.8-0.7-1.1l-21.8-6.4c-3.8-1.1-6.8-5.6,1.5-8.9L44,71.6c4.9-1.9,13.1-1.9,19,0.5l31,12.5
	c1.9,0.8,1.7,2,0.4,2.3L87,88.9c-2.8,0.8-5.8,0.8-8.6-0.1l-22.8-7.9c-2.1-0.7-4.7-1.6-6.4-1l-2.3,0.8c-0.7,0.2-0.8,1-0.1,1.2
	l17.1,5.6c9.4,3.1,8.1,8,3.7,9.1l-7.2,1.8C54.4,99.9,50.2,99.5,44.7,98.1"/>
<path class="st0" d="M6.4,39.3L6.4,39.3c-0.2,1.2,1,2.6,2,1.8l24.2-16.4c0.8-0.6,1.2-0.3,1.2,0.7l-0.4,5.7c-0.1,1.5-1.1,2.4-2.4,3.2
	L11.4,46.7c-1.3,0.8-2.2,2.1-2.5,3.5l-1.2,7.5c0,0.6,0.5,1.1,1.1,1.1c0.2,0,0.3,0,0.5-0.1l21.7-12.4c0.5-0.2,1,0.1,1.1,0.5
	c0,0.1,0,0.2,0,0.3l-0.4,5.6c-0.1,1.1-0.8,2-1.8,2.5L2.5,69.6c-1.5,0.8-1.7,1.6-1.9,2.9l-0.5,2.4c-0.7,4.1,2.7,7.5,6.4,5.8l35.7-16
	c4.1-1.9,6.5-6.3,6.6-10.7l0.8-51.8c0-1.4-2.1-2.6-3.2-1.8L15.3,23.8C10.5,27.6,7.3,33.2,6.4,39.3"/>
<path class="st0" d="M482,55.4h20.3v-8.6H482V30.6c0-0.9,0.8-1.7,1.7-1.7c0,0,0,0,0,0h24.5v-9.8H478c-4.1,0-7.4,3.3-7.4,7.4v0v50.8
	c0,4.1,3.4,7.5,7.5,7.5h0h31.2V75h-25.6c-0.9,0-1.7-0.8-1.7-1.7c0,0,0,0,0,0L482,55.4L482,55.4z"/>
<path class="st0" d="M633.4,65.6c0-12.4-9.8-17.6-21.6-19.2l0,0c-6.4-1-11.3-3.8-11.3-8.5s3.8-8.4,11.1-8.5h17.9V19.1h-17.9
	c-13.5,0-21.5,7.2-21.5,18.7c0,10.3,9.7,17,21.6,18.7l0,0c6.1,1,11.3,4,11.3,9s-3.9,9-11.2,9h-20.2v10.2h20.2
	C625.6,84.8,633.4,77.5,633.4,65.6"/>
<path class="st0" d="M158.4,55.4h-15.7v-8.6h15.6c4.6,0,8.3-3.7,8.3-8.2v-2.9c0-3.7-3-6.8-6.8-6.7c0,0,0,0,0,0h-21.2v-9.7H162
	c8.8,0,16,7.1,16.1,15.9c0,0,0,0.1,0,0.1v4.1c0,4.5-2.2,10.5-8.2,11.7l0,0c6,1.3,8.2,7.2,8.2,11.7v6.2c0,8.9-7.3,16.1-16.2,16.1
	c0,0,0,0,0,0h-24.4V75h22.3c3.7,0,6.8-3,6.8-6.7c0,0,0,0,0,0v-4.8C166.6,59,162.9,55.3,158.4,55.4z"/>
<path class="st0" d="M410.4,65.6c0-12.4-9.8-17.6-21.6-19.2l0,0c-6.4-1-11.3-3.8-11.3-8.5s3.8-8.4,11.1-8.5h17.9V19.1h-17.9
	c-13.5,0-21.5,7.2-21.5,18.7c0,10.3,9.6,17,21.6,18.7l0,0c6.1,1,11.3,4,11.3,9s-3.9,9-11.2,9h-20.2v10.2h20.2
	C402.5,84.8,410.4,77.5,410.4,65.6"/>
<path class="st0" d="M307.7,65.6c0-12.4-9.8-17.6-21.6-19.2l0,0c-6.4-1-11.3-3.8-11.3-8.5s3.8-8.4,11.1-8.5h17.9V19.1h-17.9
	c-13.5,0-21.5,7.2-21.5,18.7c0,10.3,9.6,17,21.6,18.7l0,0c6.1,1,11.3,4,11.3,9s-3.9,9-11.2,9H266v10.2h20.2
	C299.8,84.8,307.7,77.5,307.7,65.6"/>
<g class="st3">
	<path class="st0" d="M161.5,121.7v11.2c0,7.1-4.1,11.5-11.6,11.5c-7.5,0-11.5-4.5-11.5-11.5v-11.2c0-7.1,4-11.5,11.5-11.5
		C157.4,110.2,161.5,114.6,161.5,121.7z M155.8,121.7c0-4.6-1.9-6.8-5.8-6.8c-3.9,0-5.8,2.1-5.8,6.8v11.2c0,4.7,1.9,6.9,5.8,6.9
		c4,0,5.8-2.2,5.8-6.9V121.7z"/>
	<path class="st0" d="M171.5,144h-5.2v-23.4h4.6l0.1,2.3h0.1c1.6-1.8,3.7-2.7,6.3-2.7c4.8,0,7.5,3.4,7.5,8.8v15h-5.1v-14.8
		c0-3.2-1.3-4.7-3.9-4.7c-2,0-3.6,1-4.5,2.3V144z"/>
	<path class="st0" d="M211.9,110.6c7.4,0,11.7,4.5,11.7,11.6v10.1c0,7.1-4.3,11.6-11.7,11.6h-11.5v-33.4H211.9z M211.9,115.5h-5.7
		v23.8h5.7c4,0,5.9-2.1,5.9-7v-9.7C217.9,117.6,215.9,115.5,211.9,115.5z"/>
	<path class="st0" d="M232.8,132.9v2.7c0,3.2,1.5,4.8,4.4,4.8c2.2,0,3.5-1,4.5-3.5l3.7,1.4c-1.3,4-4,6-8.7,6c-5.8,0-9.1-3.6-9.1-8.6
		v-7.2c0-4.7,3.1-8.5,9-8.5c5.7,0,8.7,3.9,8.7,8.7v4H232.8z M232.8,129.9h8v-1.6c0-2.8-1.5-4.3-4-4.3c-2.8,0-4,1.6-4,4.4V129.9z"/>
	<path class="st0" d="M267.1,144H262v-14.9c0-3.4-1.3-4.6-3.3-4.6c-1.7,0-3.1,1.1-3.8,2.7V144h-5.2v-23.4h4.6v2.5h0.1
		c1.4-1.9,3.5-2.9,5.8-2.9c2.5,0,4.5,1.1,5.6,3.4c1.4-2.1,3.7-3.4,6.4-3.4c4.5,0,7.1,2.8,7.1,8.9V144h-5.1v-14.9
		c0-3-1.1-4.6-3.5-4.6c-2.1,0-3.6,1.3-3.6,4.6V144z"/>
	<path class="st0" d="M283.9,125.6c1.7-3.2,4.3-5.4,8.4-5.4c5.6,0,7.8,3.5,7.8,8v11c0,1.1,0.6,1.7,1.7,1.7h0.6v2.9
		c-0.7,0.2-1.6,0.4-2.4,0.4c-2.2,0-3.5-0.9-4.2-2.1c-1.7,1.6-3.7,2.3-6,2.3c-4.1,0-6.6-2.6-6.6-6.4c0-4.1,2.4-7.5,10.2-7.5h1.6v-2.3
		c0-2.9-1.2-4-3.4-4c-1.8,0-3.4,1.1-4.5,3.2L283.9,125.6z M294.9,139.1v-5.2h-1.6c-4,0-5.3,1.5-5.3,3.8c0,2.4,1.1,3.3,2.9,3.3
		C292.7,140.9,293.9,140.2,294.9,139.1z"/>
	<path class="st0" d="M310.8,144h-5.2v-23.4h4.6l0.1,2.3h0.1c1.6-1.8,3.7-2.7,6.3-2.7c4.8,0,7.5,3.4,7.5,8.8v15h-5.1v-14.8
		c0-3.2-1.3-4.7-3.9-4.7c-2,0-3.6,1-4.5,2.3V144z"/>
	<path class="st0" d="M341.7,122.2L341.7,122.2l0.1-12.6h5.2V144h-4.6l-0.2-2.2h-0.1c-1.6,1.7-3.7,2.6-6.3,2.6
		c-4.8,0-7.4-3.4-7.4-8.8V129c0-5.4,2.6-8.8,7.7-8.8C338.3,120.2,340.3,120.8,341.7,122.2z M341.8,126.4c-0.9-1.2-2.3-2.1-4.3-2.1
		c-2.7,0-4,1.6-4,4.8v6.5c0,3.1,1.3,4.7,3.9,4.7c2,0,3.5-1,4.4-2.2V126.4z"/>
	<path class="st0" d="M392.9,110.6V144h-5.2v-22.1h-0.1l-8.3,16.5h-2.5l-8.3-16.5h-0.1V144h-5.2v-33.4h5.3l9.5,20.2h0.1l9.5-20.2
		H392.9z"/>
	<path class="st0" d="M398.5,125.6c1.7-3.2,4.3-5.4,8.4-5.4c5.6,0,7.8,3.5,7.8,8v11c0,1.1,0.6,1.7,1.7,1.7h0.6v2.9
		c-0.7,0.2-1.6,0.4-2.4,0.4c-2.2,0-3.5-0.9-4.2-2.1c-1.7,1.6-3.7,2.3-6,2.3c-4.1,0-6.6-2.6-6.6-6.4c0-4.1,2.4-7.5,10.2-7.5h1.6v-2.3
		c0-2.9-1.2-4-3.4-4c-1.8,0-3.4,1.1-4.5,3.2L398.5,125.6z M409.6,139.1v-5.2h-1.6c-4,0-5.3,1.5-5.3,3.8c0,2.4,1.1,3.3,2.9,3.3
		C407.3,140.9,408.5,140.2,409.6,139.1z"/>
	<path class="st0" d="M425.4,144h-5.2v-23.4h4.6l0.1,2.3h0.1c1.6-1.8,3.7-2.7,6.3-2.7c4.8,0,7.5,3.4,7.5,8.8v15h-5.1v-14.8
		c0-3.2-1.3-4.7-3.9-4.7c-2,0-3.6,1-4.5,2.3V144z"/>
	<path class="st0" d="M456.8,120.6h5.1V144h-4.6l-0.2-2.2h-0.1c-1.6,1.7-3.8,2.6-6.4,2.6c-4.7,0-7.4-3.4-7.4-8.8v-15h5.2v15
		c0,3.1,1.3,4.7,3.9,4.7c2,0,3.6-1,4.5-2.2V120.6z"/>
	<path class="st0" d="M478.5,124.4h-5.2V144h-5.2v-19.6h-2.7v-3.7h2.7V119c0-4.6,2.6-8.4,9.9-8.6l0.2,3.6c-3.9,0.2-5.2,2.1-5.2,5.1
		v1.6h5.4V124.4z"/>
	<path class="st0" d="M481.6,125.6c1.7-3.2,4.3-5.4,8.4-5.4c5.6,0,7.8,3.5,7.8,8v11c0,1.1,0.6,1.7,1.7,1.7h0.6v2.9
		c-0.7,0.2-1.6,0.4-2.4,0.4c-2.2,0-3.5-0.9-4.2-2.1c-1.7,1.6-3.7,2.3-6,2.3c-4.1,0-6.6-2.6-6.6-6.4c0-4.1,2.4-7.5,10.2-7.5h1.6v-2.3
		c0-2.9-1.2-4-3.4-4c-1.8,0-3.4,1.1-4.5,3.2L481.6,125.6z M492.6,139.1v-5.2H491c-4,0-5.3,1.5-5.3,3.8c0,2.4,1.1,3.3,2.9,3.3
		C490.4,140.9,491.6,140.2,492.6,139.1z"/>
	<path class="st0" d="M515.9,127.2c-0.8-2.1-2.3-3-4.1-3c-2.7,0-4.2,1.4-4.2,4.6v6.8c0,3.2,1.5,4.7,4.2,4.7c2,0,3.3-0.9,4.1-3.2
		l3.7,1.4c-1.3,3.6-4,5.8-8.3,5.8c-5.8,0-8.8-3.9-8.8-8.5v-7.2c0-4.7,3-8.5,8.8-8.5c3.9,0,6.9,2,8.2,5.6L515.9,127.2z"/>
	<path class="st0" d="M534.5,124.5h-5.3v12.8c0,2.2,1.1,3.2,2.9,3.2c0.7,0,1.3-0.1,2-0.4l0.5,3.2c-1.2,0.6-2.6,1.1-4.3,1.1
		c-4.4,0-6.2-2.6-6.2-7.3v-12.4l-2.8-0.7v-3.3l3.1-0.2l1.3-6.4h3.6v6.6h5.3V124.5z"/>
	<path class="st0" d="M551.5,120.6h5.1V144h-4.6l-0.2-2.2h-0.1c-1.6,1.7-3.8,2.6-6.4,2.6c-4.7,0-7.4-3.4-7.4-8.8v-15h5.2v15
		c0,3.1,1.3,4.7,3.9,4.7c2,0,3.6-1,4.5-2.2V120.6z"/>
	<path class="st0" d="M574.6,125.5c-0.6-0.4-1.4-0.6-2.3-0.6c-3.1,0-4.7,2.3-5.2,6v13H562v-23.4h4.5l0.2,3.9h0.1
		c1.3-3,3.3-4.2,5.7-4.2c0.9,0,1.9,0.2,2.6,0.6L574.6,125.5z"/>
	<path class="st0" d="M584.1,120.6V144h-5.2v-23.4H584.1z M583.9,110.6v5.4h-4.8v-5.4H583.9z"/>
	<path class="st0" d="M595,144h-5.2v-23.4h4.6l0.1,2.3h0.1c1.6-1.8,3.7-2.7,6.3-2.7c4.8,0,7.5,3.4,7.5,8.8v15h-5.1v-14.8
		c0-3.2-1.3-4.7-3.9-4.7c-2,0-3.6,1-4.5,2.3V144z"/>
	<path class="st0" d="M618,135.5c-0.9,0.5-1.4,1.1-1.4,1.7c0,0.9,0.6,1.5,2.5,1.5h5.1c5.7,0,7.7,2.3,7.7,5.9c0,4.8-3.7,7.5-10.1,7.5
		c-6.3,0-8.8-2.3-8.8-5.8c0-1.7,0.6-3.2,1.8-4.2c-1.5-0.8-2.4-2.2-2.4-3.9c0-1.6,1-3.1,3-4.2c-1.4-1.3-2.1-3.3-2.1-6
		c0-5.4,2.7-7.9,8.5-7.9c2.1,0,3.8,0.3,5.1,1c1.3-0.7,2.3-1.9,2.8-3l2.4,1c-0.3,1.8-1.2,3.5-2.5,4.6c0.6,1.2,0.9,2.6,0.9,4.4
		c0,5.3-2.8,7.8-8.7,7.8C620.3,135.9,619,135.8,618,135.5z M618.6,142.9c-1,0.6-1.3,1.6-1.3,2.9c0,2,1.6,2.9,4.8,2.9
		c4.6,0,5.4-1.5,5.4-3.3c0-1.7-0.7-2.4-3.5-2.4H618.6z M621.8,132.4c2.9,0,3.7-0.8,3.7-4.2c0-3.4-1-4.3-3.7-4.3
		c-2.8,0-3.7,0.9-3.7,4.3C618.2,131.6,619,132.4,621.8,132.4z"/>
</g>
</svg>
