<?xml version="1.0" encoding="utf-8"?>
<!-- Generator: Adobe Illustrator 19.2.1, SVG Export Plug-In . SVG Version: 6.00 Build 0)  -->
<svg version="1.1" id="Trademarks_-_3_color_logo_-_dark_bkgrd"
	 xmlns="http://www.w3.org/2000/svg" xmlns:xlink="http://www.w3.org/1999/xlink" x="0px" y="0px" viewBox="0 0 1039 87"
	 style="enable-background:new 0 0 1039 87;" xml:space="preserve">
<style type="text/css">
	.st0{fill:#F0F0F0;}
	.st1{fill:#B3B3B3;}
	.st2{fill:#808080;}
	.st3{enable-background:new    ;}
</style>
<title>3d-systems-odm-logo-dark-bkgrd-no-tm</title>
<polygon class="st0" points="239.5,23.1 232.5,23.1 223.7,39.5 214.8,23.1 207.8,23.1 220.1,47.2 220.1,63.7 227.1,63.7 227.1,47.3 
	227.2,47.3 227.2,47.3 "/>
<path class="st0" d="M146.8,57.9H140V29.1h6.8c2.9,0,7,0.9,7.2,7.8v13.2C153.8,57,149.7,57.9,146.8,57.9 M146.8,23.2h-13.9v40.5
	h13.9c6.2,0,13.6-2.8,14.3-13l0,0V36.9C160.8,25.9,152.7,23.2,146.8,23.2"/>
<polygon class="st0" points="272.3,23.1 272.3,29.2 281.9,29.2 281.9,63.7 288.9,63.7 288.9,29.2 298.4,29.2 298.4,23.1 "/>
<polygon class="st0" points="365.5,23.1 353.7,47.7 342,23.1 335.7,23.1 335.7,63.7 342,63.7 342,36.5 351.7,56.7 355.8,56.7 
	365.5,36.5 365.5,63.7 371.8,63.7 371.8,23.1 "/>
<path class="st1" d="M62.6,43.5l-1.3-16.7c0-0.5,0.3-0.6,0.7-0.3l2.2,1.5c5.6,4,7.2,8.5,8.3,15.8l0.8,5.9c0.1,0.5-0.5,0.5-0.9,0.2
	l-8.9-4.7C63.1,44.9,62.7,44.3,62.6,43.5 M67.6,22.2l-14-10.7c-0.6-0.4-1.4-0.2-1.8,0.4c-0.1,0.1-0.2,0.3-0.2,0.5l0.5,32.5
	c0,2.7,1.5,5.2,4,6.4L78,61.1c1.4,0.6,3.1,0,3.7-1.4c0.3-0.6,0.3-1.2,0.2-1.9l-2.7-16.1C77.9,34,73.8,27.1,67.6,22.2"/>
<path class="st2" d="M44.3,71.9l-21.1-5.4c-1-0.3-0.6-1.1,0.2-1.4l1.3-0.5c1.8-0.7,3.8-0.8,5.7-0.3l14.1,4c1,0.3,3.1,0.9,3.9,0.6
	l1.6-0.5c0.3-0.1,0.2-0.5-0.4-0.7l-13.4-4c-2.3-0.7-4.2-3.4,0.9-5.5l6.6-2.7c3.8-1.2,7.9-1.1,11.6,0.3l19,7.7c1.2,0.5,1,1.2,0.2,1.4
	l-4.5,1.2c-1.7,0.5-3.5,0.5-5.2-0.1l-14-4.9c-1.3-0.5-2.9-1-4-0.6l-1.4,0.5c-0.4,0.2-0.5,0.6-0.1,0.8l10.5,3.5
	c5.8,1.9,5,4.9,2.3,5.6L54,72C50.8,72.8,47.5,72.8,44.3,71.9"/>
<path class="st0" d="M20.9,35.6L20.9,35.6c-0.1,0.8,0.6,1.6,1.2,1.1l14.8-10.1c0.5-0.4,0.8-0.2,0.7,0.4l-0.3,3.5
	c-0.1,0.9-0.7,1.6-1.5,1.9l-12,7.7c-0.8,0.5-1.3,1.3-1.5,2.2l-0.7,4.6c0,0.4,0.3,0.7,0.6,0.7c0.1,0,0.2,0,0.4-0.1l13.3-7.7
	c0.3-0.1,0.6,0.1,0.7,0.3c0,0.1,0,0.1,0,0.2l-0.3,3.4c-0.1,0.7-0.5,1.2-1.1,1.5l-16.8,8.9c-0.7,0.3-1.1,1-1.1,1.8L17,57.5
	c-0.5,2.5,1.7,4.6,3.9,3.6l21.9-9.9c2.5-1.3,4-3.8,4-6.6l0.5-32c-0.1-0.8-0.7-1.3-1.5-1.3c-0.2,0-0.3,0.1-0.5,0.1L26.3,26
	C23.4,28.4,21.4,31.8,20.9,35.6"/>
<path class="st0" d="M312,45.5h12.4v-5.3H312v-9.9c0-0.6,0.4-1,1-1h15v-6h-18.5c-2.5,0-4.5,2-4.5,4.5v31.4c0,2.5,2,4.6,4.6,4.6
	c0,0,0,0,0,0h19.1v-6H313c-0.6,0-1-0.5-1-1.1V45.5z"/>
<path class="st0" d="M404.6,51.8c0-7.6-6-10.9-13.2-11.9l0,0c-3.9-0.6-6.9-2.3-6.9-5.2s2.3-5.2,6.8-5.2h10.9v-6.3h-10.9
	c-8.2,0-13.1,4.4-13.1,11.5c0,6.4,5.9,10.5,13.2,11.5l0,0c3.8,0.7,6.9,2.5,6.9,5.5s-2.4,5.5-6.9,5.5h-12.4v6.3h12.4
	C399.8,63.6,404.6,59.1,404.6,51.8"/>
<path class="st0" d="M113.9,45.5h-9.6v-5.3h9.5c2.8,0,5.1-2.3,5.1-5.1v-1.8c0-2.3-1.9-4.2-4.2-4.2l0,0h-13v-6h14.3
	c5.4,0,9.8,4.4,9.9,9.8c0,0,0,0,0,0v2.5c0,2.8-1.4,6.5-5,7.2l0,0c3.7,0.8,5,4.4,5,7.2v3.8c0,5.5-4.5,9.9-9.9,9.9h0h-14.9v-6h13.7
	c2.3,0,4.2-1.9,4.2-4.2v0v-3C118.9,47.7,116.7,45.5,113.9,45.5C113.9,45.5,113.9,45.5,113.9,45.5z"/>
<path class="st0" d="M268.1,51.8c0-7.6-6-10.9-13.2-11.9l0,0c-3.9-0.6-6.9-2.3-6.9-5.2s2.3-5.2,6.8-5.2h10.9v-6.3h-10.9
	c-8.2,0-13.1,4.4-13.1,11.5c0,6.4,5.9,10.5,13.2,11.5l0,0c3.8,0.7,6.9,2.5,6.9,5.5s-2.4,5.5-6.9,5.5h-12.4v6.3H255
	C263.3,63.6,268.2,59.1,268.1,51.8"/>
<path class="st0" d="M205.3,51.8c0-7.6-6-10.9-13.2-11.9l0,0c-3.9-0.6-6.9-2.3-6.9-5.2s2.3-5.2,6.8-5.2h10.9v-6.3H192
	c-8.2,0-13.1,4.4-13.1,11.5c0,6.4,5.9,10.5,13.2,11.5l0,0c3.8,0.7,6.9,2.5,6.9,5.5s-2.4,5.5-6.9,5.5h-12.4v6.3h12.4
	C200.4,63.6,205.3,59.1,205.3,51.8"/>
</svg>
