<svg width="18" height="18" viewBox="0 0 18 18" xmlns="http://www.w3.org/2000/svg"><title>44E6F020-CE80-498A-9645-3E341368D812</title><g fill="none" fill-rule="evenodd"><path d="M11.779 12.53c-1.132-.193-2.682-1.284-2.682-1.758V9.576c0-.446.607-1.281.866-2.05.024-.073.18.01.332-.173.285-.35.327-.88.393-1.121.104-.38-.361-.396-.361-.396s.347-1.995.04-3.255C9.95.864 7.711 0 6.835 0c-.876 0-3.11.864-3.529 2.58-.306 1.26.047 3.256.047 3.256s-.448.016-.345.396c.066.242.14.772.427 1.121.15.184.241.1.266.173.258.769.866 1.604.866 2.05v1.196c0 .474-1.551 1.565-2.683 1.757C.43 12.776-.29 13.774.052 16.265c.17 1.243 3.474 1.778 6.747 1.732 3.273.046 6.626-.489 6.796-1.732.341-2.491-.362-3.49-1.816-3.736" fill="#4A4A4A"/><path d="M17.912 5.538V2.77h-5.835v2.77z"/><path d="M12.077 2.77c.106.814.074 1.693.012 2.354.077.13.134.27.178.414h5.645V2.77h-5.835zM11.564 8.447a2.255 2.255 0 0 1-.31.31c-.094.199-.191.388-.282.565-.069.133-.164.318-.217.437v.457c.33.244.886.547 1.24.607.283.048.6.127.922.254h4.995v-2.77h-6.256c-.033.047-.056.095-.092.14M15.099 16.5c-.006.04-.018.077-.025.115h2.838v-2.769h-2.855c.155.711.188 1.582.042 2.654" fill="#4A4A4A"/></g></svg>