<?xml version="1.0" encoding="UTF-8"?>
<svg width="17px" height="18px" viewBox="0 0 17 18" version="1.1" xmlns="http://www.w3.org/2000/svg" xmlns:xlink="http://www.w3.org/1999/xlink">
    <!-- Generator: sketchtool 42 (36781) - http://www.bohemiancoding.com/sketch -->
    <title>875C5DDD-64AA-4F80-832A-6F89E747362B</title>
    <desc>Created with sketchtool.</desc>
    <defs></defs>
    <g id="Page-1" stroke="none" stroke-width="1" fill="none" fill-rule="evenodd">
        <g id="Desktop-wide/quotes_n_orders_expanded" transform="translate(-141.000000, -950.000000)">
            <g id="Orders" transform="translate(87.000000, 821.000000)">
                <g id="table_card/orders" transform="translate(1.000000, 67.000000)">
                    <g id="table_card" transform="translate(-1.000000, 0.000000)">
                        <g id="line_items" transform="translate(1.000000, 62.000000)">
                            <g id="line_item" transform="translate(13.000000, 0.000000)">
                                <g id="PDF_icon" transform="translate(40.000000, 0.000000)">
                                    <g transform="translate(0.625000, 0.000000)" id="Fill-1" fill="#4A4A4A">
                                        <path d="M11.7422781,1.6876125 L13.9789451,3.9376125 L11.7422781,3.9376125 L11.7422781,1.6876125 Z M15.6570045,18.0001125 L15.6564454,3.9376125 L11.7422781,0.0001125 L1.11810984,0.0001125 L1.11810984,8.4376125 L-0.000223666701,8.4376125 L-0.000223666701,14.6251125 L1.11810984,14.6251125 L1.11810984,18.0001125 L15.6570045,18.0001125 Z M2.23644334,1.1251125 L10.6239446,1.1251125 L10.6239446,5.0626125 L14.5381119,5.0626125 L14.5381119,16.8751125 L2.23644334,16.8751125 L2.23644334,14.6251125 L12.3014449,14.6251125 L12.3014449,8.4376125 L2.23644334,8.4376125 L2.23644334,1.1251125 Z"></path>
                                    </g>
                                    <path d="M3.39558532,13 L3.39558532,10.6190476 L4.82415675,10.6190476 L4.82415675,11.0952381 L3.87177579,11.0952381 L3.87177579,11.5714286 L4.82415675,11.5714286 L4.82415675,12.047619 L3.87177579,12.047619 L3.87177579,13 L3.39558532,13 Z M4.82415675,11.0952381 L5.30034722,11.0952381 L5.30034722,11.5714286 L4.82415675,11.5714286 L4.82415675,11.0952381 Z M6.25272817,13 L6.25272817,10.6190476 L7.6812996,10.6190476 L7.6812996,11.0952381 L6.72891865,11.0952381 L6.72891865,12.5238095 L7.6812996,12.5238095 L7.6812996,13 L6.25272817,13 Z M8.15749008,11.0952381 L8.15749008,12.5238095 L7.6812996,12.5238095 L7.6812996,11.0952381 L8.15749008,11.0952381 Z M9.10987103,13 L9.10987103,10.6190476 L10.5384425,10.6190476 L10.5384425,11.0952381 L9.58606151,11.0952381 L9.58606151,11.5714286 L10.5384425,11.5714286 L10.5384425,12.047619 L9.58606151,12.047619 L9.58606151,13 L9.10987103,13 Z" id="PDF" fill="#FFFFFF"></path>
                                </g>
                            </g>
                        </g>
                    </g>
                </g>
            </g>
        </g>
    </g>
</svg>