<svg width="16" height="18" viewBox="0 0 16 18" xmlns="http://www.w3.org/2000/svg"><title>F70E8941-47E8-4A7D-BC32-6099B683F42F</title><g fill="#4A4A4A" fill-rule="evenodd"><path d="M2.236 1.125h8.388v3.938h3.914v11.812H2.236v-2.25h10.065V8.438H2.236V1.125zm9.506.563l2.237 2.25h-2.237v-2.25zM15.657 18V3.938L11.741 0H1.118v8.438H0v6.187h1.118V18h14.539z"/><path d="M6.624 11.688c0-.814-.302-1.221-.907-1.221-.303 0-.53.103-.685.308-.154.205-.231.51-.231.913 0 .404.076.708.228.912.153.204.38.307.684.307.607 0 .911-.406.911-1.219"/></g></svg>