<svg width="18" height="18" viewBox="0 0 18 18" xmlns="http://www.w3.org/2000/svg"><title>42524D9B-56D3-46C1-A253-20D8069D5394</title><g fill="#4A4A4A" fill-rule="evenodd"><path d="M11.938 8.185c-.403 0-.798-.187-1.053-.538a1.31 1.31 0 0 1 .287-1.824l3.157-2.301a1.297 1.297 0 0 1 1.815.287c.424.584.294 1.4-.286 1.824l-3.156 2.303c-.232.168-.498.249-.764.249M16.524 12.624c-.111 0-.225-.014-.338-.044l-3.767-1.014a1.305 1.305 0 0 1 .672-2.521l3.769 1.013c.693.187 1.104.903.92 1.599a1.3 1.3 0 0 1-1.256.967M11.89 17.644a1.3 1.3 0 0 1-1.189-.774l-1.588-3.577c-.293-.66.003-1.43.658-1.723a1.293 1.293 0 0 1 1.717.66l1.588 3.577a1.306 1.306 0 0 1-1.186 1.837M5.39 17.555a1.307 1.307 0 0 1-1.157-1.898l1.773-3.49a1.293 1.293 0 0 1 1.748-.568c.64.326.894 1.112.568 1.754l-1.771 3.49a1.3 1.3 0 0 1-1.16.712M1.3 12.426c-.6 0-1.14-.42-1.272-1.034a1.31 1.31 0 0 1 1.003-1.55l3.817-.814a1.307 1.307 0 0 1 .541 2.554l-3.817.816a1.381 1.381 0 0 1-.272.028M5.967 8.347c-.287 0-.576-.096-.816-.291L2.119 5.592a1.308 1.308 0 0 1-.192-1.836 1.3 1.3 0 0 1 1.828-.194l3.032 2.465a1.307 1.307 0 0 1-.82 2.32M8.868 6.527c-.719 0-1.3-.583-1.3-1.305V1.305C7.568.584 8.149 0 8.868 0c.72 0 1.301.584 1.301 1.305v3.917c0 .722-.581 1.305-1.3 1.305"/></g></svg>